<svg id="Artistic" xmlns="http://www.w3.org/2000/svg" width="147.086" height="170.882" viewBox="0 0 147.086 170.882">
  <path id="Polygon_9" data-name="Polygon 9" d="M128.161,0l42.72,73.543-42.72,73.543H42.72L0,73.543,42.72,0Z" transform="translate(147.086 0) rotate(90)" fill="#f0eeff"/>
  <g id="아트웍_8" data-name="아트웍 8" transform="translate(56.075 85.441)">
    <g id="아트웍_8-2" data-name="아트웍 8" transform="translate(-42.896 -72.331)">
      <path id="Path_35738" data-name="Path 35738" d="M75.669,55.148a15.9,15.9,0,0,0,.183,3.533,14.681,14.681,0,0,0,2.741,6.762c2.376,3.168,6.579,6.031,14.133,7.128,4.874.731,8.041-4.386,8.041-12.306,0-3.777-.122-7.98-.426-12.062-.061-1.34-3.29,1.036-3.29,1.036-1.645.366-3.533,12.976-5.178,12.062-.548-.3-1.828-2.5-3.472-5.422l-.914-1.523c-3.412-5.848-8.041-13.524-11.758-15.23S75.669,55.148,75.669,55.148Z" transform="translate(-29.025 -15.268)" fill="#ff505c"/>
      <path id="Path_35739" data-name="Path 35739" d="M81.4,75.326c2.376,3.168,6.579,6.031,14.133,7.128,4.874.731,8.529-5.056,8.041-13.159a42.951,42.951,0,0,0-3.351,5.483c-1.645,3.229-3.29,5.544-7.554,4.143-1.462-.487-3.655-1.157-3.838-2.985s.792-3.107,1.157-4.264a27.659,27.659,0,0,0,1.218-5.848L90.294,64.3a11.94,11.94,0,0,0-4.021,3.107c-.67.914-.975,2.071-1.584,3.046A20.856,20.856,0,0,1,82.5,72.89,4.873,4.873,0,0,0,81.4,75.326Z" transform="translate(-31.892 -25.152)" fill="#fc3c4c"/>
      <path id="Path_35740" data-name="Path 35740" d="M76.9,41.635c-.67-1.218-4.935-9.016-10.478-11.392-2.559-1.1-9.138-1.706-10.722,1.645-2.559,5.361,3.229,14.743,7.737,21.322C69.038,51.991,73.79,47.6,76.9,41.635Z" transform="translate(-21.602 -11.502)" fill="#5f40d5"/>
      <path id="Path_35741" data-name="Path 35741" d="M79.954,219.918c-.548-.487-5.3.548-5.361.853s.122,4.386.67,4.752,5.117.792,5.117-.122S80.441,220.405,79.954,219.918Z" transform="translate(-29.228 -85.917)" fill="#ff505c"/>
      <path id="Path_35742" data-name="Path 35742" d="M29.829,221.014c-.3-.67-5.178-1.462-5.3-1.157s-1.462,4.143-1.157,4.691,5.056,1.767,5.361.914S30.133,221.684,29.829,221.014Z" transform="translate(-9.197 -85.917)" fill="#ff505c"/>
      <path id="Path_35743" data-name="Path 35743" d="M47.435,106.589l1.157,2.559c2.741,6.031,6.153,12.976,6.7,16.692,6.4,7.249,5.666,22.053,6.153,30.216.365,6.7.792,14.012.975,14.621l7.006.67c1.584-8.833,5.178-37.1,5.178-43.253S68.94,97.025,64.554,88.922,46.582,96.537,45,98.548C44.389,99.34,45.608,102.568,47.435,106.589Z" transform="translate(-17.605 -33.874)" fill="#32187c"/>
      <path id="Path_35744" data-name="Path 35744" d="M49.1,117.483l1.157,2.559a158.518,158.518,0,0,1,6.7,16.692c3.838,12.793,5.3,36.917,7.128,44.9.609.366,1.706.67,4.63.426.122-5.909-3.472-12.976-4.447-18.7-1.949-10.966,1.157-22.845-4.2-33.079-1.523-2.863-3.838-5.787-3.838-9.2,0-1.706.975-3.655-.061-5.239-1.889-2.8-4.935-.67-6.336,1.4a.548.548,0,0,0-.548.061Z" transform="translate(-19.269 -44.768)" fill="#1f0d52"/>
      <path id="Path_35745" data-name="Path 35745" d="M22.632,170.443c1.767,2.01,6.518,2.985,6.518,2.985,4.264-9.321,8.468-27.475,9.138-38.014.975-16.326,3.777-32.287,3.655-36.613a7,7,0,0,0-.061-1.036c-4.2-4.63-9.382-7.128-12.428-7.371-1.218-.061-2.071.183-2.376.853a45.02,45.02,0,0,0-2.62,5.848l-.183.548c-4.021,11.392-2.8,17.484-2.132,32.226C22.51,136.876,25.129,166.544,22.632,170.443Z" transform="translate(-8.457 -35.346)" fill="#32187c"/>
      <path id="Path_35746" data-name="Path 35746" d="M22.71,175.049c.487.914,4.325,2.8,4.386,2.437,1.34-5.909,1.462-10.478,2.254-16.509s0-11.819-.487-17.667a95.336,95.336,0,0,0-1.4-10.174c-.67-3.29-1.584-6.457-1.949-9.808a43.394,43.394,0,0,1,2.924-19.068.426.426,0,0,0,0-.426.487.487,0,0,0-.061-.853,7.554,7.554,0,0,0-3.9-.792c-4.021,11.392-2.8,17.484-2.132,32.227.3,6.945,1.584,17.849,1.645,25.464C23.989,172.734,23.075,174.257,22.71,175.049Z" transform="translate(-8.536 -39.952)" fill="#1f0d52"/>
      <path id="Path_35747" data-name="Path 35747" d="M70.242,30.4a6.481,6.481,0,0,1,2.985,4.934c.548,3.716,1.279,14.072.366,17.91a33.391,33.391,0,0,1-.975,3.655h0l-2.193-3.229s-2.315-3.594-1.949-4.447S70.242,30.4,70.242,30.4Z" transform="translate(-26.826 -11.903)" fill="#5333be"/>
      <path id="Path_35748" data-name="Path 35748" d="M57.529,66.585c-.183.548-7.432,4.691-11.453,6.214-7.006,2.62-18.885,4.691-21.931,4.143-1.218-.244-2.071-.548-2.254-.975s1.462-13.585,1.218-21.809c-.061-1.584-.061-3.168-.061-4.752-.061-8.224.548-15.961,2.376-17.362l1.462-1.1a27.414,27.414,0,0,1,2.8-1.706,26.5,26.5,0,0,1,5.787-2.254A24.124,24.124,0,0,1,47.051,26.8h0a23.575,23.575,0,0,1,3.168.975l.792.3c3.655,1.462,3.107,9.382,2.559,16.022a63.968,63.968,0,0,0-.426,7.676,15.411,15.411,0,0,0,.244,1.767C54.239,58.483,56.92,63.052,57.529,66.585Z" transform="translate(-8.63 -10.257)" fill="#5f40d5"/>
      <path id="Path_35749" data-name="Path 35749" d="M23.592,63.1c.061,2.01.122,3.777.061,5A109.473,109.473,0,0,0,24.506,85.7c.366,2.8.792,5.544.914,8.346a56.9,56.9,0,0,0,.183,5.848,12.062,12.062,0,0,0,.426,2.01c.183.609.914.366,1.036-.061,2.68-8.894,1.706-18.154,2.01-27.292s-.366-11.392-.366-18.52C28.709,53.352,23.287,57.068,23.592,63.1Z" transform="translate(-9.296 -21.575)" fill="#5333be"/>
      <g id="Group_12145" data-name="Group 12145" transform="translate(11.238 10.862)">
        <rect id="Rectangle_13518" data-name="Rectangle 13518" width="7.128" height="29.114" transform="translate(61.044 9.937) rotate(47.5)" fill="#f27900"/>
        <rect id="Rectangle_13519" data-name="Rectangle 13519" width="11.148" height="12.501" rx="1.34" transform="translate(67.023 1.57) rotate(47.5)" fill="#f27900"/>
        <path id="Path_35750" data-name="Path 35750" d="M122.308,20.632h.061l.3.244a.731.731,0,0,0,.914-1.1l-.122-.122a.611.611,0,0,0,0-.183,1.4,1.4,0,0,0-.975-1.279,1.1,1.1,0,0,0-1.218,1.036,1.1,1.1,0,0,0,1.036,1.4Z" transform="translate(-58.696 -17.993)" fill="#1b0d20"/>
        <path id="Path_35751" data-name="Path 35751" d="M118.808,23.732h.061l.3.244a.731.731,0,0,0,.914-1.1l-.122-.122a.671.671,0,0,0,0-.183,1.4,1.4,0,0,0-.975-1.279,1.1,1.1,0,0,0-1.218,1.036,1.1,1.1,0,0,0,1.036,1.4Z" transform="translate(-57.328 -19.205)" fill="#1b0d20"/>
        <path id="Path_35752" data-name="Path 35752" d="M115.508,26.732h.061l.3.244a.731.731,0,0,0,.914-1.1l-.122-.122a.673.673,0,0,0,0-.183,1.4,1.4,0,0,0-.975-1.279,1.222,1.222,0,1,0-.183,2.437Z" transform="translate(-56.038 -20.377)" fill="#1b0d20"/>
        <path id="Path_35753" data-name="Path 35753" d="M68.912,79.243l-3.594-1.4a24.857,24.857,0,0,0-3.229-4.508s-10.356-8.529-17.667-2.8c-3.229,2.5-3.229,8.407-6.945,10.174-2.071.975-7.31,2.193-11.7,4.386H19.75l-1.1,7.493c-1.1,7.676,10.356,22.845,23.21,21.626s8.407-14.438,13.22-17.118,11.7-5.117,12.61-10.356h.122Z" transform="translate(-18.58 -37.676)" fill="#ff8e0a"/>
        <path id="Path_35754" data-name="Path 35754" d="M63.828,61s-10.356-8.59-17.667-2.863c-3.229,2.5-3.229,8.407-6.945,10.174S21.55,72.575,20.453,80.251,30.81,103.1,43.664,101.878s8.407-14.438,13.22-17.118,13.4-5.726,12.671-12.123S63.828,61,63.828,61Z" transform="translate(-19.284 -32.836)" fill="#ffa800"/>
        <rect id="Rectangle_13520" data-name="Rectangle 13520" width="7.128" height="48.12" transform="translate(60.75 8.179) rotate(47.5)" fill="#ff8e0a"/>
        <path id="Path_35755" data-name="Path 35755" d="M63.251,91.856a7.972,7.972,0,0,1-11.27-.061c-2.863-3.107-2.437-8.163.914-11.27a7.972,7.972,0,0,1,11.27.061C67.028,83.692,66.6,88.749,63.251,91.856Z" transform="translate(-30.891 -41.455)" fill="#1b0d20"/>
        <rect id="Rectangle_13521" data-name="Rectangle 13521" width="11.148" height="12.501" rx="1.34" transform="translate(66.849 0) rotate(47.5)" fill="#ffa800"/>
        <path id="Path_35756" data-name="Path 35756" d="M130.581,42.691h-.061l-.3-.244a.731.731,0,0,0-.914,1.1l.122.122a.664.664,0,0,0,0,.183,1.4,1.4,0,0,0,.975,1.279,1.225,1.225,0,1,0,.183-2.437Z" transform="translate(-61.791 -27.442)" fill="#1b0d20"/>
        <path id="Path_35757" data-name="Path 35757" d="M134.181,39.691h-.061l-.3-.244a.731.731,0,0,0-.914,1.1l.122.122a.668.668,0,0,0,0,.183A1.4,1.4,0,0,0,134,42.128a1.225,1.225,0,1,0,.183-2.437Z" transform="translate(-63.198 -26.27)" fill="#1b0d20"/>
        <path id="Path_35758" data-name="Path 35758" d="M137.581,36.791h-.061l-.3-.244a.731.731,0,0,0-.914,1.1l.122.122a.669.669,0,0,0,0,.183,1.4,1.4,0,0,0,.975,1.279,1.225,1.225,0,1,0,.183-2.437Z" transform="translate(-64.527 -25.136)" fill="#1b0d20"/>
        <rect id="Rectangle_13522" data-name="Rectangle 13522" width="63.661" height="0.554" transform="translate(12.087 54.519) rotate(-42.3)" fill="#d3e7ec"/>
        <rect id="Rectangle_13523" data-name="Rectangle 13523" width="63.661" height="0.554" transform="translate(13.457 55.891) rotate(-42.3)" fill="#d3e7ec"/>
        <rect id="Rectangle_13524" data-name="Rectangle 13524" width="63.661" height="0.554" transform="translate(14.67 56.979) rotate(-42.3)" fill="#d3e7ec"/>
        <rect id="Rectangle_13525" data-name="Rectangle 13525" width="7.128" height="2.747" transform="translate(12.112 52.076) rotate(47.5)" fill="#ff8e0a"/>
      </g>
      <g id="Group_12146" data-name="Group 12146" transform="translate(63.913 26.889)">
        <path id="Path_35759" data-name="Path 35759" d="M106.6,51.257a4.168,4.168,0,0,0,3.594.975c1.34-.426,2.315-2.863,1.888-4.813s-1.036-2.741-2.254-3.107-1.1.061-1.036.609.426.609.609.914a3.594,3.594,0,0,1,.67,2.01c-.061.914-.061.244-.244-.183a6.214,6.214,0,0,0-.67-1.218c-.366-.487-1.645-1.889-2.559-1.523s.3,1.645.609,2.071,1.279,1.462,1.157,1.889-.426-.67-.487-.792a2.681,2.681,0,0,0-1.1-1.036c-.67-.244-1.4-.061-1.34.609S106.3,48.7,106.6,49l.548.609q.426.67-.3-.061a11.436,11.436,0,0,1-1.1-.731.487.487,0,0,0-.548.061C104.592,49.734,105.932,50.77,106.6,51.257Z" transform="translate(-105.046 -44.176)" fill="#ff505c"/>
        <path id="Path_35760" data-name="Path 35760" d="M115.943,45.439h0c.3-.609,1.036-1.34,1.767-1.157A.914.914,0,0,1,118.2,45.8c-.3.366-.792.609-1.1.914a3.106,3.106,0,0,0-.67,1.036l-.183,1.157c-.061.487-.853.792-1.036.183A4.264,4.264,0,0,1,115.943,45.439Z" transform="translate(-108.965 -44.206)" fill="#ff505c"/>
      </g>
      <g id="Group_12147" data-name="Group 12147" transform="translate(38.449 47.746)">
        <path id="Path_35761" data-name="Path 35761" d="M63.462,85.117c.426.609.853.244,1.523.3s2.68,1.645,3.472,1.279-1.34-1.157-.731-1.645,3.533,1.34,2.62-.183c-.183-.366-1.949-1.218-1.218-1.34s2.5,1.036,2.741.244-.975-.914-1.462-1.036c-2.437-.731-1.157-.853.426-.244s1.279-.122.548-.853-4.2-1.218-5.909-.548C64.8,81.4,62.548,83.837,63.462,85.117Z" transform="translate(-63.247 -79.337)" fill="#ff505c"/>
        <path id="Path_35762" data-name="Path 35762" d="M67.3,80.355l.731-.609a2.254,2.254,0,0,0,.792-.792c.244-.548-.3-.609-.67-.487A14.118,14.118,0,0,0,65.9,80.6,4.2,4.2,0,0,0,67.3,80.355Z" transform="translate(-64.284 -78.413)" fill="#ff505c"/>
      </g>
      <path id="Path_35763" data-name="Path 35763" d="M2.184,72.809c5.117,8.224,38.075-5.726,38.075-5.726l-.609-3.29c-.366-.061-25.586,3.229-25.586.548,0-1.157,5.909-13.829,7.249-19.433.67-2.8,2.193-5.787,1.523-7.676s-2.863-4.508-5.3-3.168c-5,2.741-9.077,9.5-12.61,16.509S-2.263,65.682,2.184,72.809Z" transform="translate(-0.133 -13.192)" fill="#ff505c"/>
      <path id="Path_35764" data-name="Path 35764" d="M55.108,19.389v3.533s.853,1.523,0,1.706c-1.828.366-4.508-1.706-4.508-1.706V17.5Z" transform="translate(-19.856 -6.862)" fill="#ff505c"/>
      <path id="Path_35765" data-name="Path 35765" d="M50.6,20.376V18s2.01,2.559,4.2,2.68A4.843,4.843,0,0,1,50.6,20.376Z" transform="translate(-19.856 -7.057)" fill="#fc3c4c"/>
      <path id="Path_35766" data-name="Path 35766" d="M54.948,5.6a24.8,24.8,0,0,1,2.071,6.518c.3,2.254-3.777,5.178-7.128,2.01s-2.376-7.92-2.376-7.92Z" transform="translate(-18.599 -2.211)" fill="#ff505c"/>
      <path id="Path_35767" data-name="Path 35767" d="M46.125,7.734A2.254,2.254,0,0,0,46,9.622l.122.3a2.01,2.01,0,0,0-.183.366,1.584,1.584,0,0,0,.183,1.157c.3.67.244,1.523,1.157,1.828a1.34,1.34,0,0,0,1.706-.975c.3-1.1-.3-2.376-.548-3.412s-.426-2.559-.609-2.924S45.333,7.308,46.125,7.734Z" transform="translate(-18 -2.335)" fill="#32187c"/>
      <path id="Path_35768" data-name="Path 35768" d="M48.7,14.889l-.183-.183c-.487-.548.426-1.279.853-.731a4.508,4.508,0,0,0,2.01,1.462,1.975,1.975,0,0,0,2.376-.67.609.609,0,0,1,.792.061c.67.792,2.62-.3,2.863.914a2.943,2.943,0,0,1-2.01,3.046c-3.107.975-5.361-1.1-7.067-3.046a.548.548,0,0,1,.366-.853Z" transform="translate(-18.934 -5.409)" fill="#32187c"/>
      <path id="Path_35769" data-name="Path 35769" d="M56.7,3.609A2.132,2.132,0,0,0,55.846.441c-1.828-.975-4.813.061-6.64.548A6.336,6.336,0,0,0,46.22,2.634a6.761,6.761,0,0,0-.853,1.523,8.1,8.1,0,0,0,1.34,6.579c.426.548,1.34-.061.914-.609a6.518,6.518,0,0,1-1.157-5.3,4.164,4.164,0,0,0,2.437.244c2.193-.183,5.848.548,7.554-1.157l.122-.122Z" transform="translate(-17.73 -0.038)" fill="#32187c"/>
      <path id="Path_35770" data-name="Path 35770" d="M23.656,53.123c.914-1.036,6.579-7.92,6.762-13.951C30.479,36.431,28.652,30.1,25,29.79c-5.97-.426-12.549,8.407-17,15.047C11.107,49.589,16.955,52.392,23.656,53.123Z" transform="translate(-3.207 -11.659)" fill="#5333be"/>
      <path id="Path_35771" data-name="Path 35771" d="M74.408,227.6s-2.254,3.229-.67,5.787c0,0,11.818.548,15.352,0,0,0,.122-4.325-2.985-4.691a55.8,55.8,0,0,0-6.518-.3S76.6,230.037,74.408,227.6Z" transform="translate(-28.678 -88.97)" fill="#1f0d52"/>
      <path id="Path_35772" data-name="Path 35772" d="M22.723,225.8s-2.5,3.046-1.1,5.726c0,0,11.7,1.462,15.291,1.218,0,0,.426-4.325-2.559-4.934a55.919,55.919,0,0,0-6.457-.792S24.733,228.359,22.723,225.8Z" transform="translate(-8.366 -88.266)" fill="#1f0d52"/>
    </g>
  </g>
</svg>
