<svg id="Conventional" xmlns="http://www.w3.org/2000/svg" xmlns:xlink="http://www.w3.org/1999/xlink" width="147.086" height="170.882" viewBox="0 0 147.086 170.882">
  <defs>
    <linearGradient id="linear-gradient" x1="-132.169" y1="0.342" x2="-132.011" y2="0.444" gradientUnits="objectBoundingBox">
      <stop offset="0" stop-color="#05000e"/>
      <stop offset="1" stop-color="#05000e"/>
    </linearGradient>
    <linearGradient id="linear-gradient-2" x1="162.394" y1="4.27" x2="162.41" y2="5.758" gradientUnits="objectBoundingBox">
      <stop offset="0" stop-color="#060673"/>
      <stop offset="0.34" stop-color="#261e9d"/>
      <stop offset="0.78" stop-color="#4b3ccf"/>
      <stop offset="1" stop-color="#5a47e3"/>
    </linearGradient>
    <linearGradient id="linear-gradient-3" x1="188.672" y1="0.194" x2="187.949" y2="1.045" xlink:href="#linear-gradient-2"/>
    <linearGradient id="linear-gradient-4" x1="-179.83" y1="3.631" x2="-180.592" y2="5.184" xlink:href="#linear-gradient-2"/>
    <radialGradient id="radial-gradient" cx="1.085" cy="-2.761" r="0.496" gradientTransform="matrix(-1, 0.03, 0.03, 1, -2633.154, 39.488)" gradientUnits="objectBoundingBox">
      <stop offset="0" stop-color="#f63c4b"/>
      <stop offset="0.4" stop-color="#f84150"/>
      <stop offset="0.9" stop-color="#fe5060"/>
      <stop offset="1" stop-color="#ff5464"/>
    </radialGradient>
  </defs>
  <path id="Polygon_9" data-name="Polygon 9" d="M128.161,0l42.72,73.543-42.72,73.543H42.72L0,73.543,42.72,0Z" transform="translate(147.086 0) rotate(90)" fill="#f0eeff"/>
  <g id="아트웍_11" data-name="아트웍 11" transform="translate(73.543 95.441)">
    <g id="Group_12140" data-name="Group 12140" transform="translate(-72.169 -60.787)">
      <g id="Group_12128" data-name="Group 12128" transform="translate(0 52.506)">
        <path id="Path_35658" data-name="Path 35658" d="M50.4,171.4h4.612v9.839a.676.676,0,0,1-.676.676H51.076a.676.676,0,0,1-.676-.676Z" transform="translate(-19.396 -118.444)" fill="#ff5f00"/>
        <path id="Path_35659" data-name="Path 35659" d="M64.373,177.167a4.489,4.489,0,0,0-2.829-5.657l-20.908-6.887V152.2H33.687v12.545l-20.6,6.764a4.489,4.489,0,0,0-2.829,5.657l27.057-8.917h0Z" transform="translate(-3.852 -111.051)" fill="#ffd400"/>
        <path id="Path_35660" data-name="Path 35660" d="M49.168,145.6h5.473a1.23,1.23,0,0,1,1.23,1.23v16.05H48V146.768A1.23,1.23,0,0,1,49.168,145.6Z" transform="translate(-18.472 -108.51)" fill="#ffd400"/>
        <g id="Group_12125" data-name="Group 12125" transform="translate(4.131 60.028)">
          <path id="Path_35661" data-name="Path 35661" d="M15.555,187.328a4.428,4.428,0,1,0-4.428,4.428,4.428,4.428,0,0,0,4.428-4.428Z" transform="translate(-6.7 -182.9)" fill="#060673"/>
          <ellipse id="Ellipse_331" data-name="Ellipse 331" cx="3.444" cy="3.444" rx="3.444" ry="3.444" transform="translate(0.984 0.984)" fill="#ffb000"/>
        </g>
        <g id="Group_12126" data-name="Group 12126" transform="translate(28.852 60.028)">
          <path id="Path_35662" data-name="Path 35662" d="M55.755,187.328a4.428,4.428,0,1,0-4.428,4.428,4.428,4.428,0,0,0,4.428-4.428Z" transform="translate(-46.9 -182.9)" fill="#060673"/>
          <ellipse id="Ellipse_332" data-name="Ellipse 332" cx="3.444" cy="3.444" rx="3.444" ry="3.444" transform="translate(0.984 0.984)" fill="#ffb000"/>
        </g>
        <g id="Group_12127" data-name="Group 12127" transform="translate(54.31 60.028)">
          <path id="Path_35663" data-name="Path 35663" d="M97.155,187.328a4.428,4.428,0,1,0-4.428,4.428,4.428,4.428,0,0,0,4.428-4.428Z" transform="translate(-88.3 -182.9)" fill="#060673"/>
          <ellipse id="Ellipse_333" data-name="Ellipse 333" cx="3.444" cy="3.444" rx="3.444" ry="3.444" transform="translate(0.984 0.984)" fill="#ffb000"/>
        </g>
        <path id="Path_35664" data-name="Path 35664" d="M63.435,116.41a3.505,3.505,0,0,1-3.505,3.505H30.72l-2.091-.676c-5.288-1.66-18.756-6.088-19.617-7.441S5.2,85.294,5.2,85.294H34.41a3.505,3.505,0,0,1,3.751,3.2l.738,15.5a9.716,9.716,0,0,0,9.655,8.917H59.929A3.505,3.505,0,0,1,63.435,116.41Z" transform="translate(-1.991 -85.284)" fill="#ffd400"/>
        <path id="Path_35665" data-name="Path 35665" d="M55.074,145.511h-11.5c-1.66,0-3.075-2.4-3.075-5.411H58.149C58.149,143.052,56.734,145.511,55.074,145.511Z" transform="translate(-15.584 -106.392)" fill="#ff5f00"/>
        <path id="Path_35666" data-name="Path 35666" d="M78.105,133.705A3.505,3.505,0,0,1,74.6,137.21H43.3V130.2H74.6A3.505,3.505,0,0,1,78.105,133.705Z" transform="translate(-16.662 -102.58)" fill="#ffd400"/>
        <path id="Path_35667" data-name="Path 35667" d="M28.711,119.933H17.334A16.788,16.788,0,0,1,.669,104.56L-.007,89.125A3.516,3.516,0,1,1,7,88.572l.676,15.5a9.716,9.716,0,0,0,9.655,8.917H28.711a3.505,3.505,0,1,1,0,7.01Z" transform="translate(0.018 -85.303)" fill="#ffb000"/>
      </g>
      <path id="Path_35668" data-name="Path 35668" d="M141.8,172.945l2.4,4.3,2.152-.738-.676-5.411Z" transform="translate(-54.591 -65.823)" fill="#ff6b79"/>
      <path id="Path_35669" data-name="Path 35669" d="M147.274,178s9.163-3.075,12.545.984l-15,5.042s-2.337-2.89-.184-4.981A2.336,2.336,0,0,0,147.274,178Z" transform="translate(-55.329 -68.05)" fill="#0f00a7"/>
      <path id="Path_35670" data-name="Path 35670" d="M106.8,179.353l.861,4.8,2.829.185.553-5.534Z" transform="translate(-41.114 -68.788)" fill="#ff6b79"/>
      <path id="Path_35671" data-name="Path 35671" d="M67.991,91.6s21.461,3.628,29.087,11.315c9.1,9.286,15.558,38.188,15.558,38.188l-4.92,2.46s-14.451-22.445-19.8-27.857-21.092-.676-29.394-4.858C41.856,102.361,67.991,91.6,67.991,91.6Z" transform="translate(-20.384 -35.21)" fill="#060673"/>
      <g id="Group_12129" data-name="Group 12129" transform="translate(38.199 60.325)">
        <path id="Path_35672" data-name="Path 35672" d="M106.314,138.463s-12.36-19.678-17.1-22.138L62.1,102.674,65.79,98s24.413,2.337,30.07,10.331C104.1,120.015,106.314,138.463,106.314,138.463Z" transform="translate(-62.1 -98)" fill="url(#linear-gradient)"/>
      </g>
      <path id="Path_35673" data-name="Path 35673" d="M34.924,91.6S67.638,95.72,75.2,103.407c9.1,9.286,6.826,43.169,6.826,43.169l-4.981.553S70.16,123.146,64.81,117.735s-18.448-.184-27.119-3.505C23.3,108.634,34.924,91.6,34.924,91.6Z" transform="translate(-11.729 -35.21)" fill="#060673"/>
      <path id="Path_35674" data-name="Path 35674" d="M109.755,186.6s9.716,0,11.561,4.919h-15.8s-1.291-3.444,1.476-4.8A2.344,2.344,0,0,0,109.755,186.6Z" transform="translate(-40.501 -71.791)" fill="#0f00a7"/>
      <path id="Path_35675" data-name="Path 35675" d="M113.553,183.275c-1.045-.307-1.537,1.23-1.66,1.968a.569.569,0,0,0,1.045.43l.123-.123C113.43,185.058,114.906,183.644,113.553,183.275Z" transform="translate(-43.07 -70.495)" fill="#060673"/>
      <path id="Path_35676" data-name="Path 35676" d="M82.66,60.965c5.534,1.414,13.713,1.353,22.445,0V57.522S89.24,53.34,83.767,50.881c-1.537-.676-4.612-4.489-6.58-6.7C73.5,39.935,67.04,31.94,61.936,33.908,46.686,39.75,72.267,58.26,82.66,60.965Z" transform="translate(-22.016 -12.877)" fill="#5a47e2"/>
      <g id="Group_12130" data-name="Group 12130" transform="translate(43.918 21.338)">
        <path id="Path_35677" data-name="Path 35677" d="M86.527,60.673a67.462,67.462,0,0,0-5.842-18.448s-4.551-5.9-9.286-7.625c0,0,4.92,19.617,10.023,23.983C82.776,59.751,86.527,60.673,86.527,60.673Z" transform="translate(-71.4 -34.6)" fill="url(#linear-gradient-2)"/>
      </g>
      <path id="Path_35678" data-name="Path 35678" d="M70.185,71.17S56.472,81.317,28.37,77.135c0,0-3.751-46.243,20.6-45.936C63.79,31.384,66.988,58.81,70.185,71.17Z" transform="translate(-10.833 -11.951)" fill="#5a47e2"/>
      <g id="Group_12131" data-name="Group 12131" transform="translate(17.373 52.516)">
        <path id="Path_35679" data-name="Path 35679" d="M28.4,97.906a103.291,103.291,0,0,1,0-12.606s9.716.123,9.593,5.35a12.355,12.355,0,0,0,3.136,8.486Z" transform="translate(-28.233 -85.3)" fill="url(#linear-gradient-3)"/>
      </g>
      <g id="Group_12132" data-name="Group 12132" transform="translate(19.997 20.047)">
        <path id="Path_35680" data-name="Path 35680" d="M43.507,33.176S40.433,57.958,32.5,63.616L64.723,61.4s-23.614-1.23-19.678-9.286c3.382-7.01.246-19.617.246-19.617Z" transform="translate(-32.5 -32.5)" fill="url(#linear-gradient-4)"/>
      </g>
      <path id="Path_35681" data-name="Path 35681" d="M62.849,28.157s-1.66,3.136-6.949.061a10.024,10.024,0,0,0,.061-5.719l5.35,1.168S60.881,25.636,62.849,28.157Z" transform="translate(-21.514 -8.602)" fill="#ff5464"/>
      <path id="Path_35682" data-name="Path 35682" d="M57,4.872c-2.767.43-4.489,3.936-3.874,7.81s3.382,6.641,6.149,6.149,4.489-3.936,3.874-7.81S59.763,4.441,57,4.872Z" transform="translate(-20.396 -1.797)" fill="#ff6b79"/>
      <path id="Path_35683" data-name="Path 35683" d="M66.7,14.5a23.736,23.736,0,0,1,2.214,3.751.369.369,0,0,1-.246.492,10.885,10.885,0,0,1-2.521.369C65.342,18.989,66.7,14.5,66.7,14.5Z" transform="translate(-25.36 -5.522)" fill="#ff6b79"/>
      <g id="Group_12133" data-name="Group 12133" transform="translate(35.246 9.838)">
        <path id="Path_35684" data-name="Path 35684" d="M57.3,18.175A2.214,2.214,0,1,0,59.452,15.9,2.214,2.214,0,0,0,57.3,18.175Z" transform="translate(-57.299 -15.899)" fill="url(#radial-gradient)"/>
      </g>
      <path id="Path_35685" data-name="Path 35685" d="M62.34,7.944A9.655,9.655,0,0,1,63.2,9.789a4.612,4.612,0,0,1-3.567-.861A5.1,5.1,0,0,0,54.1,8.805l.492-2.275L61.91,5.3Z" transform="translate(-20.821 -1.979)" fill="#ff3d53"/>
      <path id="Path_35686" data-name="Path 35686" d="M62.7,1.683C60.976.269,53.474-.407,50.4,1.806a4.674,4.674,0,0,1,0-1.353c.061-.738-1.045-.738-1.168,0A4.8,4.8,0,0,0,49.292,2.3a5.719,5.719,0,0,0-1.66.861c-.615.43-.062,1.414.553.984l.8-.369A13.108,13.108,0,0,0,47.817,11.4c.246.984.615,2.644,2.583,2.706,3.136.123.676-4.489,1.537-6.088a1.783,1.783,0,0,0,1.722-1.291C54.151,5.373,56,5.557,57.287,6.3s2.583,1.291,4.059.492S64.727,3.405,62.7,1.683Z" transform="translate(-18.227 0.1)" fill="#070040"/>
      <path id="Path_35687" data-name="Path 35687" d="M54.255,15.009s-.984-1.168-1.845-.307.246,3.751,1.6,2.89S54.255,15.009,54.255,15.009Z" transform="translate(-20.053 -5.478)" fill="#ff6b79"/>
      <path id="Path_35688" data-name="Path 35688" d="M65.891,31.7s-1.23,1.353-2.091,1.414l3.136,1.414-.185-2.644A3.321,3.321,0,0,0,65.891,31.7Z" transform="translate(-24.556 -12.145)" fill="#d4deff"/>
      <path id="Path_35689" data-name="Path 35689" d="M60.373,33.053A9.716,9.716,0,0,1,55.515,31.7l-.615.123s2.952,2.89,4.981,3.751Z" transform="translate(-21.129 -12.145)" fill="#d4deff"/>
      <path id="Path_35690" data-name="Path 35690" d="M39.41,33.6C20.777,34.4,20.162,63.486,23.3,67.852c6.58,9.1,21.4,4.981,34.191-1.476V61.7s-21.646.738-23.122-2.521C31.662,53.094,45.682,41.287,39.41,33.6Z" transform="translate(-8.406 -12.877)" fill="#5a47e2"/>
      <path id="Path_35691" data-name="Path 35691" d="M87.712,81.578l-.246-.123a.615.615,0,0,0-.184-.738c-1.66-1.168-3.505-1.045-5.411-1.23h-.8c-1.291-.061-2.952-.061-3.751,1.107A2.337,2.337,0,0,0,78,83.607a3.7,3.7,0,0,0,3.444-.43,6.949,6.949,0,0,1,2.952.369c.492.184.8-.369.676-.738l.861.43c.553.369,1.045-.369.738-.8l.369.184C87.774,82.931,88.389,81.947,87.712,81.578Z" transform="translate(-29.651 -30.538)" fill="#ff6b79"/>
      <g id="Group_12136" data-name="Group 12136" transform="translate(20.243 15.066)">
        <path id="Path_35692" data-name="Path 35692" d="M.676,0H4.182A.738.738,0,0,1,4.92.738v66.6H0V.738A.738.738,0,0,1,.676,0Z" transform="translate(14.328 106.507) rotate(180)" fill="#9eb0ff"/>
        <g id="Group_12135" data-name="Group 12135" transform="translate(35.851 35.174)">
          <rect id="Rectangle_13502" data-name="Rectangle 13502" width="25.889" height="1.783" transform="translate(0 0.861)" fill="#9eb0ff"/>
          <g id="Group_12134" data-name="Group 12134" transform="translate(0.799)">
            <rect id="Rectangle_13503" data-name="Rectangle 13503" width="1.476" height="1.064" fill="#9eb0ff"/>
            <rect id="Rectangle_13504" data-name="Rectangle 13504" width="1.476" height="1.064" transform="translate(2.152)" fill="#9eb0ff"/>
            <rect id="Rectangle_13505" data-name="Rectangle 13505" width="1.476" height="1.064" transform="translate(4.366)" fill="#9eb0ff"/>
            <rect id="Rectangle_13506" data-name="Rectangle 13506" width="1.476" height="1.064" transform="translate(6.518)" fill="#9eb0ff"/>
            <rect id="Rectangle_13507" data-name="Rectangle 13507" width="1.476" height="1.064" transform="translate(8.671)" fill="#9eb0ff"/>
            <rect id="Rectangle_13508" data-name="Rectangle 13508" width="1.476" height="1.064" transform="translate(10.884)" fill="#9eb0ff"/>
            <rect id="Rectangle_13509" data-name="Rectangle 13509" width="1.476" height="1.064" transform="translate(13.037)" fill="#9eb0ff"/>
            <rect id="Rectangle_13510" data-name="Rectangle 13510" width="1.476" height="1.064" transform="translate(15.25)" fill="#9eb0ff"/>
            <rect id="Rectangle_13511" data-name="Rectangle 13511" width="1.476" height="1.064" transform="translate(17.403)" fill="#9eb0ff"/>
            <rect id="Rectangle_13512" data-name="Rectangle 13512" width="1.476" height="1.064" transform="translate(19.555)" fill="#9eb0ff"/>
            <rect id="Rectangle_13513" data-name="Rectangle 13513" width="1.476" height="1.064" transform="translate(21.769)" fill="#9eb0ff"/>
          </g>
        </g>
        <path id="Path_35693" data-name="Path 35693" d="M.676,0H4.182A.738.738,0,0,1,4.92.738v66.6H0V.738A.738.738,0,0,1,.676,0Z" transform="translate(34.437 106.507) rotate(180)" fill="#9eb0ff"/>
        <path id="Path_35694" data-name="Path 35694" d="M.676,0H4.182A.738.738,0,0,1,4.92.738v66.6H0V.738A.738.738,0,0,1,.676,0Z" transform="translate(98.39 106.507) rotate(180)" fill="#d4deff"/>
        <path id="Path_35695" data-name="Path 35695" d="M.676,0H4.182A.738.738,0,0,1,4.92.738v66.6H0V.738A.738.738,0,0,1,.676,0Z" transform="translate(118.56 106.507) rotate(180)" fill="#9eb0ff"/>
        <rect id="Rectangle_13514" data-name="Rectangle 13514" width="48.949" height="29.025" rx="0.738" transform="translate(42.984)" fill="#d4deff"/>
        <rect id="Rectangle_13515" data-name="Rectangle 13515" width="85.968" height="4.385" transform="translate(124.095 42.185) rotate(180)" fill="#d4deff"/>
        <rect id="Rectangle_13516" data-name="Rectangle 13516" width="38.065" height="4.385" transform="translate(38.065 42.185) rotate(180)" fill="#9eb0ff"/>
        <path id="Path_35696" data-name="Path 35696" d="M143.518,66.468H137V47.159a3.259,3.259,0,0,1,3.259-3.259h0a3.259,3.259,0,0,1,3.259,3.259Z" transform="translate(-72.985 -31.909)" fill="#9eb0ff"/>
        <path id="Path_35697" data-name="Path 35697" d="M128.091,78.8h15.8a2.152,2.152,0,0,1,2.152,2.152v2.214H126V80.891A2.152,2.152,0,0,1,128.091,78.8Z" transform="translate(-68.749 -45.347)" fill="#d4deff"/>
      </g>
      <g id="Group_12139" data-name="Group 12139" transform="translate(109.238 18.774)">
        <g id="Group_12137" data-name="Group 12137" transform="translate(2.384 20.151)">
          <path id="Path_35698" data-name="Path 35698" d="M194.706,65.3l-1.414,12.668h-9.778L182.1,65.3Z" transform="translate(-181.731 -64.009)" fill="#ffb000"/>
          <path id="Path_35699" data-name="Path 35699" d="M182.1,64.684c0,.553,2.829.984,6.334.984s6.334-.43,6.334-.984-2.829-.984-6.334-.984S182.1,64.13,182.1,64.684Z" transform="translate(-181.731 -63.393)" fill="#ffb000"/>
          <path id="Path_35700" data-name="Path 35700" d="M181.5,64.491c0-1.23,5.534-1.291,6.641-1.291s6.641.061,6.641,1.291-5.534,1.291-6.641,1.291S181.5,65.721,181.5,64.491Zm6.641-.676c-3.2,0-5.411.369-5.9.676.553.307,2.706.676,5.9.676s5.411-.369,5.9-.676C193.553,64.184,191.4,63.815,188.141,63.815Z" transform="translate(-181.5 -63.2)" fill="#ffd400"/>
        </g>
        <g id="Group_12138" data-name="Group 12138" transform="translate(0 0)">
          <path id="Path_35701" data-name="Path 35701" d="M177.732,51.185c.246,1.353,1.906,1.845,3.013,2.029a2.446,2.446,0,0,0,2.89-1.168,11.868,11.868,0,0,0,2.214,2.89c.307.307.8-.184.492-.492a11.252,11.252,0,0,1-1.968-2.46,2.337,2.337,0,0,0,1.783-.307,1.66,1.66,0,0,0,.8-1.906,1.291,1.291,0,0,0-1.722-.8,3.4,3.4,0,0,0-1.537,1.783,16.85,16.85,0,0,1-1.168-3.505,1.476,1.476,0,0,0,1.353.184,2.583,2.583,0,0,0,1.6-2.029,1.353,1.353,0,0,0-1.66-1.291,2.275,2.275,0,0,0-1.537,1.476c-.123-1.045-.246-2.152-.307-3.2h0c.615-.738.307-1.968-.123-2.767s-1.476-2.152-2.4-2.029-.8.861-.984,1.23a2.214,2.214,0,0,0-.185,1.6c.43,1.168,1.906,1.906,3.013,2.337.062.861.123,1.722.246,2.583a3.382,3.382,0,0,0-1.414-.8c-.984-.246-2.152-.061-2.46,1.045a1.906,1.906,0,0,0,1.414,2.275A2.952,2.952,0,0,0,181.79,47a19.185,19.185,0,0,0,.861,3.075,5.473,5.473,0,0,0-2.644-.738C179.208,49.463,177.486,49.894,177.732,51.185Z" transform="translate(-177.623 -33.186)" fill="#5a47e2"/>
          <path id="Path_35702" data-name="Path 35702" d="M189.521,33.978a19.493,19.493,0,0,1,1.23,6.272.984.984,0,0,0-.922-.43c-.553.123-.43.676-.246,1.045a1.906,1.906,0,0,0,1.107.922,5.108,5.108,0,0,1,.123.615,22.019,22.019,0,0,1-.369,3.505,3.321,3.321,0,0,0-1.045-1.845,1.045,1.045,0,0,0-1.66.43,1.906,1.906,0,0,0,.43,2.029,3.505,3.505,0,0,0,1.906,1.107c-.308,1.414-.738,2.89-1.107,4.3a.321.321,0,0,0,.615.184,54.922,54.922,0,0,0,1.66-7.133h0a3.161,3.161,0,0,0,2.644-.738,1.845,1.845,0,0,0,.184-2.214c-.492-.676-1.414-.307-1.968.123a3.259,3.259,0,0,0-.676.8v-.123a.308.308,0,0,0,.061-.184V41.112A31.06,31.06,0,0,0,191,36.5a7.929,7.929,0,0,0,2.706-2.521c.492-1.107.43-1.845-.307-2.4s-1.722.492-2.152,1.168a4.673,4.673,0,0,0-.676,2.091l-.369-1.045a.369.369,0,0,0,0-.246.307.307,0,0,0,0-.184,5.781,5.781,0,0,0-1.722-2.644,1.845,1.845,0,0,0-2.152.123c-.615.676-.123,1.722.492,2.214a4.674,4.674,0,0,0,2.706.922Z" transform="translate(-180.864 -30.431)" fill="#070040"/>
          <path id="Path_35703" data-name="Path 35703" d="M193.973,56.491a34.373,34.373,0,0,1,2.644-4.612,1.6,1.6,0,0,0,.615,1.107,1.23,1.23,0,0,0,1.6,0,1.107,1.107,0,0,0,.062-1.537,1.845,1.845,0,0,0-1.537-.553l.861-1.168a7.768,7.768,0,0,0,4.243,1.537c1.414-.062,2.091-.553,2.091-1.6s-1.476-1.414-2.4-1.537a6.765,6.765,0,0,0-2.644.123l.553-.553a.246.246,0,0,0,.307-.307h0l.676-.676h0a6.7,6.7,0,0,0,5.1-.369,2.925,2.925,0,0,0,.922-3.628c-.553-1.23-2.583-.738-3.567-.246a5.288,5.288,0,0,0-2.644,3.444h-.123l-.492.492a5.227,5.227,0,0,0-.492-2.152,1.291,1.291,0,0,0-1.783-.553c-1.414.922-.615,3.69.738,4.3l-.738.861a.369.369,0,0,0-.184.246l-.8,1.045c-.553-1.23-1.476-2.767-2.829-1.537a1.23,1.23,0,0,0-.123,1.783,4.858,4.858,0,0,0,2.029.984,34.007,34.007,0,0,0-2.767,4.8C193.236,56.553,193.789,56.86,193.973,56.491Z" transform="translate(-183.656 -34.864)" fill="#5a47e2"/>
        </g>
      </g>
    </g>
  </g>
</svg>
