<svg id="Enterprising" xmlns="http://www.w3.org/2000/svg" xmlns:xlink="http://www.w3.org/1999/xlink" width="147.086" height="170.882" viewBox="0 0 147.086 170.882">
  <defs>
    <radialGradient id="radial-gradient" cx="1.043" cy="-2.504" r="0.496" gradientTransform="matrix(-1, 0.03, 0.03, 1, -2429.021, 36.427)" gradientUnits="objectBoundingBox">
      <stop offset="0" stop-color="#f63c4b"/>
      <stop offset="0.4" stop-color="#f84150"/>
      <stop offset="0.9" stop-color="#fe5060"/>
      <stop offset="1" stop-color="#ff5464"/>
    </radialGradient>
  </defs>
  <path id="Polygon_9" data-name="Polygon 9" d="M128.161,0l42.72,73.543-42.72,73.543H42.72L0,73.543,42.72,0Z" transform="translate(147.086 0) rotate(90)" fill="#f0eeff"/>
  <g id="아트웍_10" data-name="아트웍 10" transform="translate(73.543 85.441)">
    <g id="아트웍_10-2" data-name="아트웍 10" transform="translate(-64.642 -65.995)">
      <g id="Group_12149" data-name="Group 12149">
        <path id="Path_35773" data-name="Path 35773" d="M76.509,235.073c-.417-.522-4.9-.1-4.957.209s-.365,4.018.052,4.435,4.9.417,5.009-.417S76.926,235.595,76.509,235.073Z" transform="translate(-34.257 -112.29)" fill="#ff505c"/>
        <path id="Path_35774" data-name="Path 35774" d="M70.17,242.3s-2.087,2.974-.574,5.322c0,0,10.853.522,14.088,0,0,0,.1-4.018-2.713-4.331a41.428,41.428,0,0,0-5.635-.261S72.2,244.544,70.17,242.3Z" transform="translate(-33.136 -115.865)" fill="#1f0d52"/>
        <path id="Path_35775" data-name="Path 35775" d="M30.509,235.073c-.417-.522-4.9-.1-4.957.209s-.365,4.018.052,4.435,4.9.417,5.009-.417S30.926,235.595,30.509,235.073Z" transform="translate(-12.259 -112.29)" fill="#ff505c"/>
        <path id="Path_35776" data-name="Path 35776" d="M24.27,242.3s-2.087,2.974-.574,5.322c0,0,10.853.522,14.088,0,0,0,.1-4.018-2.713-4.331a41.428,41.428,0,0,0-5.635-.261S26.3,244.544,24.27,242.3Z" transform="translate(-11.185 -115.865)" fill="#1f0d52"/>
        <path id="Path_35777" data-name="Path 35777" d="M75.519,130.831c0,9.705-3.652,30.054-6.1,38.872H63c-.052-.052-.052-10.122-.052-13.984,0-7.044-1.931-18.627-2.4-25.045-.261-3.444-.157-11.949-2.4-17.636L57,110.012c-1.3-3.5-2.139-6.209-1.565-6.887C57,101.351,70.51,88.1,73.9,95.4S75.519,121.126,75.519,130.831Z" transform="translate(-26.537 -44.572)" fill="#5f40d4"/>
        <path id="Path_35778" data-name="Path 35778" d="M66.792,160.607c-.052-3.6.417-7.2.313-10.8a51.085,51.085,0,0,0-1.3-9.131,56.273,56.273,0,0,1-1.513-10.644c0-2.557,1.1-5.583.574-8.035a2.613,2.613,0,0,0-2.661-2.3c-1.461,0-2.818,1.513-3.6,2.974.365.939,2.4,19.514,5.479,43.881a83.051,83.051,0,0,1,.574,15.81,19.5,19.5,0,0,0,3.287,0C69.3,176.052,66.9,166.868,66.792,160.607Z" transform="translate(-28.141 -57.234)" fill="#32187c"/>
        <path id="Path_35779" data-name="Path 35779" d="M44.745,100.181v.991a56.778,56.778,0,0,1-.887,6.522c-.209,1.3-.417,6.94-.678,8.5-1.1,6.261-2.609,10.175-3.548,18.366-1.1,9.653-6.261,25.045-8.818,35.272H24.5s1.357-15.027,2.191-17.845-1.461-7.983-1.409-12.157c.052-2.974-.052-5.948-.1-8.5v-2.557c.1-13.566-.73-19.2,3.5-29.48l.209-.47a41.376,41.376,0,0,1,2.661-5.27c.365-.574,1.148-.783,2.244-.678,2.609.313,6.94,2.661,10.488,6.731Z" transform="translate(-11.833 -44.394)" fill="#5f40d4"/>
        <path id="Path_35780" data-name="Path 35780" d="M32.048,106.086A6.94,6.94,0,0,0,28.5,105.2c-4.226,10.279-3.392,15.914-3.5,29.48v2.557c.052,2.765.209,5.635.1,8.5s-.052,11.9-.313,15.027a129.145,129.145,0,0,0-.47,14.975h3.131c1.513-5.113,1.722-11.27,2.713-16.488s.574-10.853.365-16.227a87.5,87.5,0,0,0-.835-9.392,90.553,90.553,0,0,1-1.3-9.079A39.721,39.721,0,0,1,32,107.233a.636.636,0,0,1,.3-.738A.417.417,0,0,0,32.048,106.086Z" transform="translate(-11.711 -50.298)" fill="#32187c"/>
        <path id="Path_35781" data-name="Path 35781" d="M77.889,44.717a14.606,14.606,0,0,0,.157,3.235c.626,4.435,3.5,12.053,15.5,12.783,13.149.783,12-12.888,10.749-19.2-.365-1.878-.73-3.131-.73-3.131-.209-1.2-5.374-1.1-5.374-1.1-1.513.313-2.765,12.157-4.279,11.322S83.524,32.559,77.993,30C74.6,28.437,77.889,44.717,77.889,44.717Z" transform="translate(-36.681 -14.288)" fill="#5f40d4"/>
        <path id="Path_35782" data-name="Path 35782" d="M105.745,43.072c-.365,4.9-.835,11.062-4.748,14.505s-10.54,1.67-14.192-2.139L84.77,53.194c-3.026-5.948-.574-13.514-3.339-19.671-.261-.574-1.252-.261-.939.365a17.791,17.791,0,0,1,1.357,5.531.522.522,0,0,0-.313.47c.052,1.357,0,2.765,0,4.226a43.007,43.007,0,0,0,0,6.366,9.133,9.133,0,0,0-2.035-.939C80.126,53.977,83,61.595,95,62.325,108.145,63.056,107,49.385,105.745,43.072Z" transform="translate(-38.136 -15.878)" fill="#32187c"/>
        <path id="Path_35783" data-name="Path 35783" d="M63.825,67.561c-.157.47-12.679,3.392-16.54,3.965A68.352,68.352,0,0,1,34.71,72.2c-2.713-.157-4.7-.47-4.957-1.044s.574-11.375.313-18.888c-.052-1.2-.052-2.452-.052-3.652-.052-7.827.417-15.34,2.191-16.7l1.357-.939a25.2,25.2,0,0,1,2.609-1.565,24.315,24.315,0,0,1,5.322-2.087,22.175,22.175,0,0,1,10.644-.157h0a21.654,21.654,0,0,1,2.922.887l.73.261c3.339,1.357,2.87,8.609,2.348,14.766a55.633,55.633,0,0,0-.417,7.044,14.185,14.185,0,0,0,.209,1.618C58.659,56.238,63.251,64.274,63.825,67.561Z" transform="translate(-14.321 -12.713)" fill="#e1ecef"/>
        <path id="Path_35784" data-name="Path 35784" d="M34.811,40.269c-2.139,2.765-2.5,9.914-4.279,12.888L29.907,54.3c0,1.2.052,2.452.052,3.652.209,7.514-.887,17.74-.313,18.888s2.244.887,4.957,1.044a5.174,5.174,0,0,0,.209-2.818c-.157-1.878-.313-3.7-.47-5.583-.365-4.018-.73-7.879.1-11.844s2.713-7.253,3.548-11.323a8.968,8.968,0,0,0-1.722-7.827A13.688,13.688,0,0,0,34.811,40.269Z" transform="translate(-14.214 -18.397)" fill="#b8d3d8"/>
        <path id="Path_35785" data-name="Path 35785" d="M138.681,74.657a4.749,4.749,0,0,0-1.774-.261,1.357,1.357,0,0,0-.887.574A21.667,21.667,0,0,0,134.768,77a.226.226,0,0,1-.035.183.1.1,0,0,0,.035.078c.522.783,1.461.365,1.983-.209s.261-.417.417-.626a3.624,3.624,0,0,1,1.461-.574.783.783,0,0,0,.626-.574C139.255,74.865,138.994,74.761,138.681,74.657Z" transform="translate(-64.549 -35.566)" fill="#ff505c"/>
        <path id="Path_35786" data-name="Path 35786" d="M67.209,34.11c.052,8.192-.626,30.785-8.609,44.664,0,0,29.845-4.7,38.507-1.3h.052c.052-1.252.678-30.367,5.061-42.055a4.592,4.592,0,0,0-3.392-6.157c-6.992-1.461-18.523-2.87-28.489.522A4.592,4.592,0,0,0,67.209,34.11Z" transform="translate(-28.141 -13.23)" fill="#eef9fb" fill-rule="evenodd"/>
        <path id="Path_35787" data-name="Path 35787" d="M136.665,83.208l-.1-.1a.835.835,0,0,0,.574-.365c.1-.261-.1-.522-.261-.73h0c.522-.1,1.044-.313,1.1-.783s-.261-.678-.73-.835l.522-.209c.626-.313.365-1.044-.157-1.357a3.914,3.914,0,0,0-1.722-.157,2.5,2.5,0,0,0-1.148.261c-.522.417.052.887.47,1.2-.522-.052-.991.052-.991.678a1.148,1.148,0,0,0,.574.939,1.514,1.514,0,0,0-.678.209c-.47.313-.052.887.313,1.1l.522.261-.1.1c-.209.313.157.678.417.835a.939.939,0,0,0,1.409-1.044Z" transform="translate(-64.151 -37.596)" fill="#ff505c"/>
        <path id="Path_35788" data-name="Path 35788" d="M58.67,26.714H58.2l1.618,3.809,2.974-2.244L65.609,30l-1.931-3.183a3.666,3.666,0,0,0-1.826-.1c-.574.261-.261,1.2-.261,1.2Z" transform="translate(-27.95 -12.721)" fill="#b9dae1"/>
        <path id="Path_35789" data-name="Path 35789" d="M63.174,18.922v3.287s.783,1.409,0,1.565C61.452,24.14,59,22.209,59,22.209V17.2Z" transform="translate(-28.332 -8.216)" fill="#ff505c"/>
        <path id="Path_35790" data-name="Path 35790" d="M59.1,22.07V20.4a7.618,7.618,0,0,0,3.809,1.618A3.493,3.493,0,0,1,59.1,22.07Z" transform="translate(-28.38 -9.746)" fill="#fc3c4c"/>
        <path id="Path_35791" data-name="Path 35791" d="M63.768,6.1a22.8,22.8,0,0,1,.47,6.261c-.209,2.035-4.487,3.809-6.783.261S57.037,5,57.037,5Z" transform="translate(-27.047 -2.382)" fill="#ff6b79"/>
        <path id="Path_35792" data-name="Path 35792" d="M61.995-.009a4.852,4.852,0,0,0-1.513.47,6.887,6.887,0,0,1-2.557.365,4.236,4.236,0,0,0-3.131.939c-.887.835-1.826,4.383-.991,6.261a1.043,1.043,0,0,0,.574.939A1.252,1.252,0,0,0,56.1,8.444c.522-.887.209-2.191.261-3.183s.052-.522.052-.783c2.609.47,6.157.939,7.931-.939S64.186-.165,61.995-.009Z" transform="translate(-25.692 0.018)" fill="#32187c"/>
        <path id="Path_35793" data-name="Path 35793" d="M58.1,26.278l.47-.678a7.461,7.461,0,0,0,1.3,1.461,1.879,1.879,0,0,1,.783,1.252Z" transform="translate(-27.902 -12.233)" fill="#b9dae1"/>
        <path id="Path_35794" data-name="Path 35794" d="M65.8,29.8l-1.3.991,1.148,1.3,1.2-.052.47-1.357Z" transform="translate(-30.962 -14.242)" fill="#32187c"/>
        <path id="Path_35795" data-name="Path 35795" d="M66.609,34.1s2.191,16.958,1.3,25.045L65.67,61.493,64,59.51s2.609-20.088,1.461-25.358Z" transform="translate(-30.723 -16.298)" fill="#32187c"/>
        <g id="Group_12148" data-name="Group 12148" transform="translate(35.851 44.054)">
          <path id="Path_35796" data-name="Path 35796" d="M69.125,90.742c.365.522.835.209,1.357.313s2.452,1.513,3.183,1.148-1.2-1.044-.678-1.513,3.235,1.252,2.4-.209c-.157-.313-1.774-1.1-1.148-1.252s2.3.939,2.5.209-.783-.835-1.2-.991c-2.244-.678-1.044-.783.417-.209s1.148-.157.522-.783-3.861-.991-5.426-.417C70.43,87.3,68.29,89.542,69.125,90.742Z" transform="translate(-68.934 -85.531)" fill="#ff505c"/>
          <path id="Path_35797" data-name="Path 35797" d="M73.152,86.076a7.663,7.663,0,0,0,.678-.522,2.035,2.035,0,0,0,.73-.678c.209-.47-.261-.522-.626-.417A8.668,8.668,0,0,0,71.9,86.389,3.861,3.861,0,0,0,73.152,86.076Z" transform="translate(-70.353 -84.413)" fill="#ff505c"/>
        </g>
        <path id="Path_35798" data-name="Path 35798" d="M2.664,71.875c4.748,7.566,35.011-5.27,35.011-5.27L37.1,63.579c-.313-.052-23.48,2.974-23.532.522,0-1.1,8.4-14.61,9.6-19.723a11.114,11.114,0,0,0-.522-6.522c-.887-2.4-3.652-2.765-5.9-1.565-4.539,2.5-10.122,8.453-13.357,14.818S-1.406,65.353,2.664,71.875Z" transform="translate(-0.224 -17.027)" fill="#d3e7ec"/>
        <path id="Path_35799" data-name="Path 35799" d="M75.9,31.8s5.74-.678,4.748,3.339c0,0,26.089-2.244,30.941,1.774,0,0,1.826-4.487-.783-6.627C107.259,27.47,78.874,23.661,75.9,31.8Z" transform="translate(-36.414 -12.851)" fill="#d3e7ec" fill-rule="evenodd"/>
      </g>
      <g id="Group_12152" data-name="Group 12152" transform="translate(63.331 77.441)">
        <g id="Group_12150" data-name="Group 12150" transform="translate(21.08)">
          <path id="Path_35800" data-name="Path 35800" d="M162,148.4a2.557,2.557,0,0,0,2.557,2.557h40.072a2.557,2.557,0,0,0,2.244-2.557Z" transform="translate(-162 -148.4)" fill="#f88"/>
          <path id="Path_35801" data-name="Path 35801" d="M1.1,0H4.174a1.1,1.1,0,0,1,1.1,1.1V47.481H0V1.148A1.1,1.1,0,0,1,1.1.052Z" transform="translate(40.385 50.143) rotate(180)" fill="#f88"/>
          <path id="Path_35802" data-name="Path 35802" d="M1.149,0H4.228a1.1,1.1,0,0,1,1.1,1.1V47.483H0V1.149A1.1,1.1,0,0,1,1.149,0Z" transform="translate(8.402 50.144) rotate(180)" fill="#f88"/>
        </g>
        <path id="Path_35803" data-name="Path 35803" d="M187.552,148.4l-21.08,1.722H121.6l21.08-1.722Z" transform="translate(-121.6 -148.4)" fill="#f88"/>
        <path id="Path_35804" data-name="Path 35804" d="M202.7,152.679l21.08-1.722h.313a2.557,2.557,0,0,0,2.244-2.557l-21.08,1.722-.835.835Z" transform="translate(-160.384 -148.4)" fill="#ffa9ac"/>
        <g id="Group_12151" data-name="Group 12151" transform="translate(0 1.722)">
          <path id="Path_35805" data-name="Path 35805" d="M1.1,0H4.174a1.1,1.1,0,0,1,1.1,1.1V47.481H0V1.1A1.1,1.1,0,0,1,1.1,0Z" transform="translate(40.385 50.09) rotate(180)" fill="#ffd2d4"/>
          <path id="Path_35806" data-name="Path 35806" d="M1.1,0H4.174a1.1,1.1,0,0,1,1.1,1.1V47.481H0V1.1A1.1,1.1,0,0,1,1.1,0Z" transform="translate(8.401 50.09) rotate(180)" fill="#ffd2d4"/>
          <path id="Path_35807" data-name="Path 35807" d="M124.157,154.257h39.811a2.557,2.557,0,0,0,2.557-2.557H121.6a2.557,2.557,0,0,0,2.557,2.557Z" transform="translate(-121.6 -151.7)" fill="#ffd2d4"/>
        </g>
      </g>
      <g id="Group_12164" data-name="Group 12164" transform="translate(97.194 15.61)">
        <path id="Path_35808" data-name="Path 35808" d="M205.061,29.9l1.357,12.731H202.4Z" transform="translate(-194.104 -29.9)" fill="#ab91ff"/>
        <path id="Path_35809" data-name="Path 35809" d="M205.826,29.9l2.191,12.731H204Z" transform="translate(-194.869 -29.9)" fill="#bcafff"/>
        <rect id="Rectangle_13526" data-name="Rectangle 13526" width="8.557" height="7.644" transform="translate(13.618 20.036) rotate(180)" fill="#ab91ff"/>
        <rect id="Rectangle_13527" data-name="Rectangle 13527" width="16.54" height="43.443" transform="translate(17.792 62.769) rotate(180)" fill="#ab91ff"/>
        <rect id="Rectangle_13528" data-name="Rectangle 13528" width="18.627" height="1.414" transform="translate(18.627 20.036) rotate(180)" fill="#ab91ff"/>
        <rect id="Rectangle_13529" data-name="Rectangle 13529" width="8.557" height="7.644" transform="translate(16.123 20.036) rotate(180)" fill="#dadaff"/>
        <rect id="Rectangle_13530" data-name="Rectangle 13530" width="16.54" height="43.443" transform="translate(20.297 62.769) rotate(180)" fill="#dadaff"/>
        <g id="Group_12163" data-name="Group 12163" transform="translate(6.627 21.915)">
          <g id="Group_12153" data-name="Group 12153">
            <rect id="Rectangle_13531" data-name="Rectangle 13531" width="2.244" height="2.698" fill="#bcafff"/>
            <rect id="Rectangle_13532" data-name="Rectangle 13532" width="2.244" height="2.698" transform="translate(4.07)" fill="#bcafff"/>
            <rect id="Rectangle_13533" data-name="Rectangle 13533" width="2.244" height="2.698" transform="translate(8.14)" fill="#bcafff"/>
          </g>
          <g id="Group_12154" data-name="Group 12154" transform="translate(0 4.07)">
            <rect id="Rectangle_13534" data-name="Rectangle 13534" width="2.244" height="2.698" fill="#bcafff"/>
            <rect id="Rectangle_13535" data-name="Rectangle 13535" width="2.244" height="2.698" transform="translate(4.07)" fill="#bcafff"/>
            <rect id="Rectangle_13536" data-name="Rectangle 13536" width="2.244" height="2.698" transform="translate(8.14)" fill="#bcafff"/>
          </g>
          <g id="Group_12155" data-name="Group 12155" transform="translate(0 8.14)">
            <rect id="Rectangle_13537" data-name="Rectangle 13537" width="2.244" height="2.698" fill="#bcafff"/>
            <rect id="Rectangle_13538" data-name="Rectangle 13538" width="2.244" height="2.698" transform="translate(4.07)" fill="#bcafff"/>
            <rect id="Rectangle_13539" data-name="Rectangle 13539" width="2.244" height="2.698" transform="translate(8.14)" fill="#bcafff"/>
          </g>
          <g id="Group_12156" data-name="Group 12156" transform="translate(0 12.157)">
            <rect id="Rectangle_13540" data-name="Rectangle 13540" width="2.244" height="2.698" fill="#bcafff"/>
            <rect id="Rectangle_13541" data-name="Rectangle 13541" width="2.244" height="2.698" transform="translate(4.07)" fill="#bcafff"/>
            <rect id="Rectangle_13542" data-name="Rectangle 13542" width="2.244" height="2.698" transform="translate(8.14)" fill="#bcafff"/>
          </g>
          <g id="Group_12157" data-name="Group 12157" transform="translate(0 16.227)">
            <rect id="Rectangle_13543" data-name="Rectangle 13543" width="2.244" height="2.698" fill="#bcafff"/>
            <rect id="Rectangle_13544" data-name="Rectangle 13544" width="2.244" height="2.698" transform="translate(4.07)" fill="#bcafff"/>
            <rect id="Rectangle_13545" data-name="Rectangle 13545" width="2.244" height="2.698" transform="translate(8.14)" fill="#bcafff"/>
          </g>
          <g id="Group_12158" data-name="Group 12158" transform="translate(0 20.297)">
            <rect id="Rectangle_13546" data-name="Rectangle 13546" width="2.244" height="2.698" fill="#bcafff"/>
            <rect id="Rectangle_13547" data-name="Rectangle 13547" width="2.244" height="2.698" transform="translate(4.07)" fill="#bcafff"/>
            <rect id="Rectangle_13548" data-name="Rectangle 13548" width="2.244" height="2.698" transform="translate(8.14)" fill="#bcafff"/>
          </g>
          <g id="Group_12159" data-name="Group 12159" transform="translate(0 24.367)">
            <rect id="Rectangle_13549" data-name="Rectangle 13549" width="2.244" height="2.698" fill="#bcafff"/>
            <rect id="Rectangle_13550" data-name="Rectangle 13550" width="2.244" height="2.698" transform="translate(4.07)" fill="#bcafff"/>
            <rect id="Rectangle_13551" data-name="Rectangle 13551" width="2.244" height="2.698" transform="translate(8.14)" fill="#bcafff"/>
          </g>
          <g id="Group_12160" data-name="Group 12160" transform="translate(0 28.437)">
            <rect id="Rectangle_13552" data-name="Rectangle 13552" width="2.244" height="2.698" fill="#bcafff"/>
            <rect id="Rectangle_13553" data-name="Rectangle 13553" width="2.244" height="2.698" transform="translate(4.07)" fill="#bcafff"/>
            <rect id="Rectangle_13554" data-name="Rectangle 13554" width="2.244" height="2.698" transform="translate(8.14)" fill="#bcafff"/>
          </g>
          <g id="Group_12161" data-name="Group 12161" transform="translate(0 32.454)">
            <rect id="Rectangle_13555" data-name="Rectangle 13555" width="2.244" height="2.698" fill="#bcafff"/>
            <rect id="Rectangle_13556" data-name="Rectangle 13556" width="2.244" height="2.698" transform="translate(4.07)" fill="#bcafff"/>
            <rect id="Rectangle_13557" data-name="Rectangle 13557" width="2.244" height="2.698" transform="translate(8.14)" fill="#bcafff"/>
          </g>
          <g id="Group_12162" data-name="Group 12162" transform="translate(0 36.524)">
            <rect id="Rectangle_13558" data-name="Rectangle 13558" width="2.244" height="2.698" fill="#bcafff"/>
            <rect id="Rectangle_13559" data-name="Rectangle 13559" width="2.244" height="2.698" transform="translate(4.07)" fill="#bcafff"/>
            <rect id="Rectangle_13560" data-name="Rectangle 13560" width="2.244" height="2.698" transform="translate(8.14)" fill="#bcafff"/>
          </g>
        </g>
        <rect id="Rectangle_13561" data-name="Rectangle 13561" width="18.627" height="1.414" transform="translate(21.132 20.036) rotate(180)" fill="#bcafff"/>
      </g>
      <g id="Group_12166" data-name="Group 12166" transform="translate(74.653 39.925)">
        <rect id="Rectangle_13562" data-name="Rectangle 13562" width="18.158" height="34.228" transform="translate(26.297 38.455) rotate(180)" fill="#bcafff"/>
        <g id="Group_12165" data-name="Group 12165" transform="translate(10.644 6.94)">
          <path id="Path_35810" data-name="Path 35810" d="M166.935,89.8v5.531H163.7V89.8Z" transform="translate(-163.7 -89.8)" fill="#dadaff"/>
          <path id="Path_35811" data-name="Path 35811" d="M176.435,95.331H173.2V89.8h3.235Z" transform="translate(-168.243 -89.8)" fill="#dadaff"/>
          <path id="Path_35812" data-name="Path 35812" d="M185.887,95.331H182.6V89.8h3.287Z" transform="translate(-172.738 -89.8)" fill="#dadaff"/>
          <path id="Path_35813" data-name="Path 35813" d="M166.935,110.379H163.7V104.9h3.235Z" transform="translate(-163.7 -97.021)" fill="#dadaff"/>
          <path id="Path_35814" data-name="Path 35814" d="M176.435,110.379H173.2V104.9h3.235Z" transform="translate(-168.243 -97.021)" fill="#dadaff"/>
          <path id="Path_35815" data-name="Path 35815" d="M185.887,110.379H182.6V104.9h3.287Z" transform="translate(-172.738 -97.021)" fill="#dadaff"/>
          <path id="Path_35816" data-name="Path 35816" d="M166.935,125.431H163.7V119.9h3.235Z" transform="translate(-163.7 -104.195)" fill="#dadaff"/>
          <path id="Path_35817" data-name="Path 35817" d="M176.435,125.431H173.2V119.9h3.235Z" transform="translate(-168.243 -104.195)" fill="#dadaff"/>
          <path id="Path_35818" data-name="Path 35818" d="M185.887,125.431H182.6V119.9h3.287Z" transform="translate(-172.738 -104.195)" fill="#dadaff"/>
          <path id="Path_35819" data-name="Path 35819" d="M166.935,140.431H163.7V134.9h3.235Z" transform="translate(-163.7 -111.368)" fill="#dadaff"/>
          <path id="Path_35820" data-name="Path 35820" d="M176.435,140.431H173.2V134.9h3.235Z" transform="translate(-168.243 -111.368)" fill="#dadaff"/>
          <path id="Path_35821" data-name="Path 35821" d="M185.887,140.431H182.6V134.9h3.287Z" transform="translate(-172.738 -111.368)" fill="#dadaff"/>
        </g>
        <path id="Path_35822" data-name="Path 35822" d="M155.361,80.726,151.5,76.552l18.106-.052,3.913,4.226Z" transform="translate(-147.221 -76.5)" fill="#dadaff"/>
        <path id="Path_35823" data-name="Path 35823" d="M147.579,76.6,143.3,80.774V115h8.14V80.774Z" transform="translate(-143.3 -76.548)" fill="#ab91ff"/>
      </g>
      <g id="Group_12167" data-name="Group 12167" transform="translate(30.771 6.479)">
        <path id="Path_35824" data-name="Path 35824" d="M59.2,14.33A1.878,1.878,0,1,0,61.025,12.4,1.878,1.878,0,0,0,59.2,14.33Z" transform="translate(-59.199 -12.399)" fill="url(#radial-gradient)"/>
      </g>
    </g>
  </g>
</svg>
