<svg id="Investigative" xmlns="http://www.w3.org/2000/svg" xmlns:xlink="http://www.w3.org/1999/xlink" width="147.086" height="170.882" viewBox="0 0 147.086 170.882">
  <defs>
    <clipPath id="clip-path">
      <rect id="Rectangle_2991" data-name="Rectangle 2991" width="31.703" height="31.692" fill="none"/>
    </clipPath>
    <clipPath id="clip-path-2">
      <rect id="Rectangle_2994" data-name="Rectangle 2994" width="3.631" height="3.609" fill="none"/>
    </clipPath>
    <clipPath id="clip-path-3">
      <path id="Path_7473" data-name="Path 7473" d="M57,17.988A1.788,1.788,0,1,0,58.788,16.2,1.788,1.788,0,0,0,57,17.988" transform="translate(-57 -16.2)" fill="none"/>
    </clipPath>
    <radialGradient id="radial-gradient" cx="0.244" cy="0.457" r="0.5" gradientTransform="translate(-16.815 61.901) rotate(180) scale(0.994 1)" gradientUnits="objectBoundingBox">
      <stop offset="0" stop-color="#f63c4b"/>
      <stop offset="0.4" stop-color="#f84150"/>
      <stop offset="0.9" stop-color="#fd5060"/>
      <stop offset="1" stop-color="#ff5464"/>
    </radialGradient>
  </defs>
  <path id="Polygon_9" data-name="Polygon 9" d="M128.161,0l42.72,73.543-42.72,73.543H42.72L0,73.543,42.72,0Z" transform="translate(147.086 0) rotate(90)" fill="#f0eeff"/>
  <g id="아트웍_18" data-name="아트웍 18" transform="translate(7.688 27.146)">
    <g id="Group_2863" data-name="Group 2863" transform="translate(0 -4.608)">
      <path id="Path_7439" data-name="Path 7439" d="M94.763,37.34c.65,5.69,6.449,6.828,11.11,5.528-1.734,2.981.379,6.883,3.577,8.4,5.365,2.493,12.194,1.084,17.233-1.68a5.818,5.818,0,0,0,5.474,4.227c3.739.217,6.612-2.71,8.779-5.419,1.734,4.01,7.858,3.143,11.218,1.788,2.276-.921,4.444-4.01,3.035-6.124a25.525,25.525,0,0,0,7.966-.325c2.764-.542,6.341-1.626,8.508-3.523,3.739-3.36-2.6-7.7-6.178-9.809,2.222-.6,4.606-3.035,4.227-5.474A5.633,5.633,0,0,0,165.16,20c1.951-2.981.975-7.424-3.577-8.237,3.035-6.666-5.8-7.858-7.316-5.148A5.528,5.528,0,0,0,152.1,2.819c-3.306-2.439-7.316-.054-9.159,3.035-.867-2.872-3.252-5.365-6.449-4.986a5.365,5.365,0,0,0-4.444,4.01C129.88.651,121.7.868,120.993,7.371c-8.617-1.192-9.484,5.419-8.563,10.459-3.794.217-8.4,1.409-9.863,5.311a6.026,6.026,0,0,0,1.572,6.828c-4.335.488-9.972,2.059-9.375,7.424" transform="translate(-41.096 -0.829)" fill="#00b7d7"/>
      <path id="Path_7440" data-name="Path 7440" d="M199.822,31.207c.65-1.843,1.951-4.444,4.39-3.794s1.951,2.71,1.355,4.39a3.848,3.848,0,0,1,3.306.867c1.409,1.192.813,2.276-.163,3.468a2.439,2.439,0,0,1,.975.921,2.655,2.655,0,0,1-.542,3.306c-.488.434-1.192-.271-.7-.7a1.594,1.594,0,1,0-1.68-2.71c-.6.217-.813-.7-.271-.921a2.6,2.6,0,0,1,1.246-.163v-.163a1.084,1.084,0,0,0,.379-1.626,1.03,1.03,0,0,0-.921-1.246,2.981,2.981,0,0,0-2.276.163.488.488,0,0,1-.65-.65c.6-1.246,1.355-5.257-1.734-3.631-1.084.542-1.463,1.734-1.843,2.818s-1.138.325-.921-.271" transform="translate(-91.489 -7.231)" fill="#0088c5"/>
      <path id="Path_7441" data-name="Path 7441" d="M165.371,39.986a2.383,2.383,0,0,1,2.926.867,3.793,3.793,0,0,1,1.68-2.71,3.414,3.414,0,0,1,4.173.379c2.71,2.6,1.3,7.316-1.246,9.375-.488.379-1.192-.271-.7-.7a6.07,6.07,0,0,0,2.222-6.015c-.325-1.517-1.463-2.926-3.2-2.547s-2.114,2.547-2.114,4.119h0a.491.491,0,1,1-.975-.108v-.108h0c-.108-.975-1.788-2.764-2.655-1.463s-.054,2.439.488,3.306a.5.5,0,1,1-.867.488c-.759-1.3-1.517-4.119.271-4.986" transform="translate(-75.247 -11.945)" fill="#0088c5"/>
      <path id="Path_7442" data-name="Path 7442" d="M129.537,57.977c-2.168-1.355-3.848-4.064-2.33-6.449.867-1.355,2.71-1.626,4.227-1.463s2.385,1.355,2.926,2.818c.217.6-.7.867-.921.271a3.283,3.283,0,0,0-2.71-2.114c-1.517,0-2.872.542-3.035,2.168s1.572,3.9,3.577,4.5h0l.271.108h.054a.433.433,0,0,1,.108.325h0a.433.433,0,0,1-.163.271h-.488a2.227,2.227,0,0,0-2.493,1.734,1.572,1.572,0,0,0,2.168,1.788c.6-.217.867.7.271.921a2.547,2.547,0,0,1-3.414-2.439,2.981,2.981,0,0,1,1.951-2.764" transform="translate(-58.002 -17.633)" fill="#0088c5"/>
      <path id="Path_7443" data-name="Path 7443" d="M140.2,27.044a1.951,1.951,0,0,1,.813-1.246l.379-.108a2.222,2.222,0,0,1,1.951-3.089,2.33,2.33,0,0,1,2.168,1.409,4.932,4.932,0,0,1,0,3.414c-.271,1.084-1.084.379-.921-.271s.65-3.035-.759-3.523a1.266,1.266,0,0,0-1.3,2.114.641.641,0,0,1-.867.921c-.271-.271-.488.542-.488.65a.488.488,0,0,1-.921-.271" transform="translate(-64.221 -5.072)" fill="#0088c5"/>
      <path id="Path_7444" data-name="Path 7444" d="M181.42,72.454a2.309,2.309,0,0,1,2.222,1.246,1.572,1.572,0,0,1-.759,2.005.5.5,0,0,1-.488-.867.74.74,0,0,0-.271-1.3,1.517,1.517,0,0,0-.921-.163,8.5,8.5,0,0,0-1.572.217c-1.246.271-2.547.813-2.764,2.276s-1.084.65-.976,0c.325-2.6,3.2-3.468,5.474-3.468" transform="translate(-80.566 -27.884)" fill="#0088c5"/>
      <path id="Path_7445" data-name="Path 7445" d="M140.91,82.34a24.611,24.611,0,0,0,1.3,2.222c1.68,3.089,3.739,6.178,6.937,7.75,1.246,2.71,2.764,5.311,4.119,7.912a23.4,23.4,0,0,1,2.764,12.952c-.434,4.661-1.572,8.454-2.059,12.735-.054.271.271.488.488.488a28.615,28.615,0,0,0,7.316-.379.488.488,0,0,0,.325-.6,30.674,30.674,0,0,1,2.493-24.279c1.084-1.9,2.385-3.577,3.631-5.365h.163c3.577-.7,6.828-1.734,8.725-5.04S180.58,82.611,182.1,78.6l.813-1.843c.271-.6-.6-1.084-.867-.488l-.488,1.463v.108l-.271.759c-2.493,6.015-5.365,13.657-11.76,15.5a24.926,24.926,0,0,0,1.572-2.71,27.043,27.043,0,0,0,2.655-10.839.432.432,0,0,0,0-.108.542.542,0,0,0-.108-.488V78.438a.488.488,0,0,0-.163-.379c-.163-.271-2.981,8.292-3.9,11.055a34.2,34.2,0,0,1-.7-7.262.434.434,0,0,0-.488-.488c-.271-.271-.759-.271-.813.163a17.5,17.5,0,0,0,1.138,9.755,25.394,25.394,0,0,1-1.138,2.493c-1.084,2.114-5.907,11.055-8.725,9.43-1.572-.921-3.143-3.523-4.173-4.986a26.8,26.8,0,0,1-1.951-3.143,13.494,13.494,0,0,0,3.36-7.966.434.434,0,0,0-.488-.488.379.379,0,0,0-.488.325c-.325,2.168-2.33,4.119-3.631,5.853a38.368,38.368,0,0,1-3.523-12.627v-.217a.488.488,0,0,0-.108-.433c-.108-.542-1.03-.542-.975.054v.6a17.446,17.446,0,0,0,1.03,9.321,23.3,23.3,0,0,1-4.986-5.528l-.975-1.843a.433.433,0,0,0-.217-.217v-.163c-.271-.542-1.138-.054-.867.488" transform="translate(-61.06 -34.116)" fill="#32187c"/>
      <path id="Path_7446" data-name="Path 7446" d="M18.9,131.64s22.761,11.923,40.808-1.138L53.855,93,30.172,97.335Z" transform="translate(-8.657 -37.32)" fill="#b9dae1"/>
      <path id="Path_7447" data-name="Path 7447" d="M72.763,207.677c-.379-.434-4.173.217-4.173.434s-.108,3.414.325,3.739,4.173.054,4.227-.6.054-3.143-.325-3.523" transform="translate(-31.413 -89.783)" fill="#ff505c"/>
      <path id="Path_7448" data-name="Path 7448" d="M67.931,214s-1.626,2.655-.217,4.552c0,0,9.213-.163,11.977-.759,0,0-.163-3.414-2.547-3.523a35.07,35.07,0,0,0-4.769.108s-2.6,1.409-4.444-.325" transform="translate(-30.754 -92.746)" fill="#1f0d52"/>
      <path id="Path_7449" data-name="Path 7449" d="M10.735,196.068c-.054-.542-3.36-2.439-3.523-2.276s-2.168,2.6-2.114,3.089,3.252,2.655,3.685,2.168,2.005-2.439,1.951-2.981" transform="translate(-2.335 -83.485)" fill="#ff505c"/>
      <path id="Path_7450" data-name="Path 7450" d="M2.981,198S.108,199.084,0,201.414c0,0,7.316,5.636,9.809,6.883,0,0,2.005-2.764.217-4.335a35,35,0,0,0-3.794-2.926S3.306,200.547,2.981,198" transform="translate(0 -85.417)" fill="#1f0d52"/>
      <path id="Path_7451" data-name="Path 7451" d="M56.273,106.929l.65,2.059c1.572,4.932,3.577,10.622,3.631,13.548.108,5.419,1.9,18.751,1.463,25.146-.325,5.2.921,8.834.759,10.026l4.823-.65c2.276-7.37,5.2-25.417,5.636-33.654s.542-21.948-2.059-28.614-14.632,4.227-16.041,5.636c-.542.542.108,3.143,1.138,6.449" transform="translate(-25.166 -37.159)" fill="#331b6c"/>
      <path id="Path_7452" data-name="Path 7452" d="M57.4,117.345l.65,2.059c1.572,4.932,3.577,10.622,3.631,13.548.108,5.419.7,33.275,1.03,35.063.813.542,2.493.217,3.685-.217.6-4.552-1.246-9.05-1.517-13.6-.488-8.671,2.981-17.559-.163-26.013-.921-2.385-2.439-4.823-2.114-7.479.163-1.3,1.084-2.764.434-4.064-1.192-2.33-3.794-.975-5.04.542a.434.434,0,0,0-.434,0l-.163.108" transform="translate(-26.293 -47.574)" fill="#1f0d52"/>
      <path id="Path_7453" data-name="Path 7453" d="M35.848,96.116l-.108.813c-.434,3.306-2.168,16.15-4.932,28.668-1.788,8.021-13.494,20.268-20.919,24.766l-3.577-2.439-.813-.542s4.986-7.154,7.37-10.134c6.178-7.641,5.582-12.464,6.178-17.884,1.246-11.11-1.084-16.854,2.818-24.766l.6-1.084a35.119,35.119,0,0,1,2.71-4.173,1.138,1.138,0,0,1,.7-.379,2.873,2.873,0,0,1,1.246.054c2.059.488,5.257,2.6,7.858,6.07l.813,1.138" transform="translate(-2.519 -35.451)" fill="#331b6c"/>
      <path id="Path_7454" data-name="Path 7454" d="M22.779,116.579c-.488-5.473-.542-10.568,1.626-15.716a.325.325,0,0,0-.108-.434l-.163-.163a22.493,22.493,0,0,0-2.168-.867c-3.9,7.966-1.572,13.657-2.818,24.766-.6,5.419,0,10.243-6.178,17.884-2.385,2.926-7.37,10.134-7.37,10.134l.813.542c3.36-2.493,6.774-4.986,9-8.563a69.191,69.191,0,0,0,5.853-13.277,34.9,34.9,0,0,0,1.517-14.307" transform="translate(-2.565 -40.252)" fill="#1f0d52"/>
      <path id="Path_7455" data-name="Path 7455" d="M72.188,44.991A12.354,12.354,0,0,0,72.3,47.7c.542,3.794-1.517,16.1,8.671,16.746,11.164.65,15.12-6.991,15.12-6.991A4.5,4.5,0,0,0,94.841,55.4c-1.3.271-9.646.6-10.947-.108S77.012,34.695,72.3,32.527c-2.872-1.3-.108,12.519-.108,12.519" transform="translate(-32.519 -9.58)" fill="#d3e7ec"/>
      <path id="Path_7456" data-name="Path 7456" d="M60.807,64.5c-.108.434-7.7,4.227-12.464,5.148A64.273,64.273,0,0,1,36.2,70.681c-2.33-.108-5.2-.65-5.419-1.138S32.3,57.892,32.139,51.5c-.054-1.03-.054-2.059-.054-3.089-.054-6.666.379-13.006,1.9-14.2L35.12,33.4a21.353,21.353,0,0,1,2.222-1.3,20.647,20.647,0,0,1,4.552-1.734,18.805,18.805,0,0,1,9.05-.163h0a18.426,18.426,0,0,1,2.439.759l.6.217c2.818,1.138,2.439,7.316,1.951,12.519a49.913,49.913,0,0,0-.325,5.961,12.2,12.2,0,0,0,.163,1.355c.65,3.794,4.552,10.676,5.04,13.44" transform="translate(-14.093 -8.336)" fill="#ffa700"/>
      <path id="Path_7457" data-name="Path 7457" d="M60.223,23.463v2.764s.65,1.192,0,1.355S56.7,26.227,56.7,26.227V22Z" transform="translate(-25.972 -4.797)" fill="#ff505c"/>
      <path id="Path_7458" data-name="Path 7458" d="M56.7,26.009V24.6a6.449,6.449,0,0,0,3.252,1.355,2.917,2.917,0,0,1-3.252.054" transform="translate(-25.972 -5.988)" fill="#fc3c4c"/>
      <path id="Path_7460" data-name="Path 7460" d="M36.45,30.854s3.306,5.853,2.764,10.622-1.951,21.677-2.276,26.5-2.059,27.639-.488,36.581c0,0-13.982-5.961-17.45-1.409,0,0,8.725-42.325,6.395-51.267s3.2-17.179,3.2-17.179,4.119-3.523,7.858-3.9" transform="translate(-8.703 -8.828)" fill="#eefafb"/>
      <path id="Path_7461" data-name="Path 7461" d="M72.5,32a21.786,21.786,0,0,1,1.572,8.346c-.108,4.552-2.547,12.085-.65,17.667s7.587,27.584,5.744,44.113c0,0,3.794-1.734,5.2.434,0,0-.921-30.511-2.764-36.581s-4.01-8.779-5.2-13.873.054-16.583-2.222-19.13A2.659,2.659,0,0,0,72.554,32" transform="translate(-33.21 -9.378)" fill="#eefafb"/>
      <path id="Path_7462" data-name="Path 7462" d="M30.691,116.638a30.959,30.959,0,0,0,7.75-1.138s-.325,9.375-4.227,8.454-3.523-7.316-3.523-7.316" transform="translate(-14.054 -47.627)" fill="#d3e7ec"/>
      <g id="Group_2859" data-name="Group 2859" transform="translate(83.295 15.739)" opacity="0.08">
        <g id="Group_2858" data-name="Group 2858" clip-path="url(#clip-path)">
          <path id="Path_7463" data-name="Path 7463" d="M181.34,24.525a15.824,15.824,0,1,1-10.932-5.27,15.824,15.824,0,0,1,10.932,5.27" transform="translate(-153.702 -19.268)" fill="#00b7d7"/>
        </g>
      </g>
      <path id="Path_7464" data-name="Path 7464" d="M190.59,31.071a2.059,2.059,0,0,0,.542,2.6,7.75,7.75,0,0,1,1.3,10.893,2.059,2.059,0,0,0,3.2,2.547,11.814,11.814,0,0,0-1.951-16.583,2.059,2.059,0,0,0-2.872.325l-.163.271" transform="translate(-89.927 -7.237)" fill="#fff"/>
      <path id="Path_7468" data-name="Path 7468" d="M64.855,82.253c.325.434.7.163,1.138.271s2.059,1.246,2.71.975-1.03-.867-.6-1.246,2.71,1.03,2.059-.163c-.163-.271-1.517-.921-.975-1.03s1.951.813,2.114.163-.65-.7-1.03-.867c-1.9-.6-.921-.65.325-.163s.975-.108.434-.65-3.252-.921-4.606-.434S64.1,81.223,64.8,82.253" transform="translate(-29.575 -30.854)" fill="#ff505c"/>
      <path id="Path_7469" data-name="Path 7469" d="M68.284,78.394l.6-.434a1.734,1.734,0,0,0,.6-.6c.217-.379-.217-.434-.542-.379A6.813,6.813,0,0,0,67.2,78.611a3.252,3.252,0,0,0,1.084-.217" transform="translate(-30.782 -29.976)" fill="#ff505c"/>
      <path id="Path_7470" data-name="Path 7470" d="M10.732,67.938c4.01,6.449,29.7-4.444,29.7-4.444l-.488-2.547C39.671,60.893,20,63.494,20,61.38c0-.921,7.154-12.356,8.183-16.746a9.43,9.43,0,0,0-.434-5.528c-.759-2.059-3.089-2.33-4.986-1.3-3.956,2.005-8.671,7.045-11.435,12.519s-4.064,12.031-.6,17.613" transform="translate(-3.958 -11.77)" fill="#d3e7ec"/>
      <path id="Path_7471" data-name="Path 7471" d="M56.609,5.874c-2.276.325-3.739,3.143-3.36,6.341s2.6,5.528,4.877,5.2,3.739-3.143,3.36-6.341-2.6-5.528-4.877-5.2" transform="translate(-24.364 2.603)" fill="#ff6b79"/>
      <path id="Path_7472" data-name="Path 7472" d="M65.755,14.954A19.618,19.618,0,0,1,67.489,18.1a.325.325,0,0,1-.217.379,9,9,0,0,1-2.114.217c-.6-.108.6-3.794.6-3.794" transform="translate(-29.771 -1.545)" fill="#ff6b79"/>
      <g id="Group_2862" data-name="Group 2862" transform="translate(30.89 14.059)">
        <g id="Group_2861" data-name="Group 2861" clip-path="url(#clip-path-2)">
          <g id="Group_2860" data-name="Group 2860" clip-path="url(#clip-path-3)">
            <rect id="Rectangle_2993" data-name="Rectangle 2993" width="3.631" height="3.609" fill="url(#radial-gradient)"/>
          </g>
        </g>
      </g>
      <path id="Path_7474" data-name="Path 7474" d="M61.074,8.668a7.911,7.911,0,0,1,.65,1.572A3.794,3.794,0,0,1,58.8,9.426a4.1,4.1,0,0,0-4.5-.217l.434-1.843L60.749,6.5Z" transform="translate(-24.873 2.303)" fill="#ff3d53"/>
      <path id="Path_7475" data-name="Path 7475" d="M23.137,10.627c.325.271.813.379,1.084.65,1.246,1.138.975,2.005,1.463,3.2a4.335,4.335,0,0,0,1.517,1.9c1.572,1.138,3.468,1.084,4.281-.813a6.774,6.774,0,0,0,.379-3.089c-.054-.6-.379-1.3-.434-1.9s.867-1.517,1.843-2.005A21.19,21.19,0,0,0,35.926,7.05,6.5,6.5,0,0,0,36.2,9.976c.379.759.488,2.059,2.114,2.168,2.547.163.65-3.685,1.409-4.932a1.463,1.463,0,0,0,1.463-1.03c.434-1.138,1.951-.921,2.981-.271a3.27,3.27,0,0,0,3.36.542c1.3-.6-1.788-4.606-3.035-4.877-3.36-.7-5.419.217-6.557,1.084C36.9,1.089,35.384-.266,33.271.059a3.252,3.252,0,0,0-1.951,1.03c-.813.921-.325,1.517-2.114,1.9-.6.108-1.3-.108-1.951-.054-3.577.163-7.7,4.552-4.119,7.75" transform="translate(-9.968 5.275)" fill="#32187c"/>
      <path id="Path_7476" data-name="Path 7476" d="M54.141,15.136s-.759-.975-1.463-.325.108,3.089,1.246,2.439.217-2.114.217-2.114" transform="translate(-24.01 -1.402)" fill="#ff6b79"/>
      <path id="Path_7477" data-name="Path 7477" d="M57.94,2.9a5.244,5.244,0,0,1,4.769,5.582s-7.587,1.084-9.484,0L52.9,5.176Z" transform="translate(-24.232 3.952)" fill="#32187c"/>
      <path id="Path_7478" data-name="Path 7478" d="M64.465,4.64a10.513,10.513,0,0,1,1.626,1.572,4.119,4.119,0,0,1,.65,1.9c.054.271-.434.434-.434.108a3.631,3.631,0,0,0-.65-1.843A12.3,12.3,0,0,0,64.14,4.965a.23.23,0,1,1,.325-.325" transform="translate(-29.347 3.188)" fill="#060673"/>
      <path id="Path_7479" data-name="Path 7479" d="M65.3,8.041a2.818,2.818,0,0,1,.542,1.68.244.244,0,0,1-.488,0,2.439,2.439,0,0,0-.488-1.409c-.163-.271.217-.488.434-.217" transform="translate(-29.695 1.629)" fill="#060673"/>
      <path id="Path_7480" data-name="Path 7480" d="M47.184,8.99A19.835,19.835,0,0,1,49.189,4.6.474.474,0,0,1,50,5.088a18.859,18.859,0,0,0-1.9,4.173.48.48,0,0,1-.921-.271" transform="translate(-21.605 3.281)" fill="#060673"/>
      <g id="Group_12118" data-name="Group 12118" transform="translate(38.546 13.712)">
        <rect id="Rectangle_2992" data-name="Rectangle 2992" width="8.183" height="3.956" transform="matrix(0.943, -0.334, 0.334, 0.943, 36.275, 26.503)" fill="#9675f4"/>
        <path id="Path_7465" data-name="Path 7465" d="M72.234,73.879h0c-.759-2.059.759-4.444,3.252-5.257L109.628,58l1.734,4.932L78.033,75.938c-2.439.975-5.094.054-5.8-2.005" transform="translate(-72.038 -32.708)" fill="#d5d5f8"/>
        <path id="Path_7466" data-name="Path 7466" d="M169.383,12.8A19.51,19.51,0,1,0,184.773,25.54,19.51,19.51,0,0,0,169.383,12.8m-2.872,5.148a14.144,14.144,0,0,1,5.419,27.1l-.813.325a14.144,14.144,0,0,1-9.43-26.609,13.928,13.928,0,0,1,4.823-.813" transform="translate(-106.441 -12.573)" fill="#d5d5f8"/>
      </g>
      <g id="Group_12119" data-name="Group 12119" transform="translate(62.319 45.228)">
        <path id="Path_7459" data-name="Path 7459" d="M124.5,73.714a4.01,4.01,0,0,0-.434-1.409,1.138,1.138,0,0,0-.759-.488A18.429,18.429,0,0,0,121.3,71.6h-.217c-.434.65.217,1.3.867,1.409l.65.108c.759.163.65.488.975.921a.65.65,0,0,0,.65.271c.325-.108.325-.379.271-.65" transform="translate(-117.718 -71.6)" fill="#ff505c"/>
        <path id="Path_7467" data-name="Path 7467" d="M116.406,76.589v-.163a.7.7,0,0,0,.488.271c.271,0,.379-.271.488-.434h0c.271.379.6.65,1.03.542s.434-.488.379-.867l.325.325c.488.379.921-.108.975-.6a3.306,3.306,0,0,0-.488-1.409,2.114,2.114,0,0,0-.65-.813c-.488-.271-.65.379-.759.813-.163-.434-.379-.759-.867-.488a.975.975,0,0,0-.542.759,1.247,1.247,0,0,0-.434-.434c-.434-.271-.7.271-.759.65a1.463,1.463,0,0,0,0,.488h-.108c-.325-.054-.488.379-.488.65a.813.813,0,0,0,1.246.759" transform="translate(-114.994 -72.416)" fill="#ff505c"/>
      </g>
    </g>
    <rect id="Rectangle_2995" data-name="Rectangle 2995" width="129.414" height="120.488" transform="translate(0 0.672)" fill="none"/>
  </g>
</svg>
