<svg id="Realistic" xmlns="http://www.w3.org/2000/svg" xmlns:xlink="http://www.w3.org/1999/xlink" width="147.086" height="170.882" viewBox="0 0 147.086 170.882">
  <defs>
    <radialGradient id="radial-gradient" cx="1.005" cy="-2.29" r="0.496" gradientTransform="matrix(-1, 0.03, 0.03, 1, -2273.161, 34.09)" gradientUnits="objectBoundingBox">
      <stop offset="0" stop-color="#f63c4b"/>
      <stop offset="0.4" stop-color="#f84150"/>
      <stop offset="0.9" stop-color="#fe5060"/>
      <stop offset="1" stop-color="#ff5464"/>
    </radialGradient>
  </defs>
  <path id="Polygon_9" data-name="Polygon 9" d="M128.161,0l42.72,73.543-42.72,73.543H42.72L0,73.543,42.72,0Z" transform="translate(147.086 0) rotate(90)" fill="#f0eeff"/>
  <g id="아트웍_9" data-name="아트웍 9" transform="translate(64.039 81.689)">
    <g id="아트웍_9-2" data-name="아트웍 9" transform="translate(-51.445 -72.821)">
      <path id="Path_35704" data-name="Path 35704" d="M115.808,223.629c.425-.546,5.277-.121,5.338.182s.364,4.307-.061,4.731-4.61,1.4-4.731.546S115.323,224.175,115.808,223.629Z" transform="translate(-45.506 -87.875)" fill="#ff505c"/>
      <path id="Path_35705" data-name="Path 35705" d="M115.7,230.3s2.244,3.215.667,5.7c0,0-11.646.546-15.164,0,0,0-.121-4.307,2.912-4.671a55.4,55.4,0,0,1,6.43-.3S113.513,232.666,115.7,230.3Z" transform="translate(-39.814 -90.603)" fill="#1f0d52"/>
      <path id="Path_35706" data-name="Path 35706" d="M159.415,223.629c.425-.546,4.61-.121,4.671.182s.364,4.307-.061,4.731-4.064,1.88-4.185.971S158.99,224.175,159.415,223.629Z" transform="translate(-62.666 -87.875)" fill="#ff505c"/>
      <path id="Path_35707" data-name="Path 35707" d="M114.474,130.308c-.546,6.854-.061,20.684.485,27.538.061.485.061,16.378.061,16.378l-6.43.607c-3.518-10.494-10.19-33.968-10.19-44.341s.91-27.781,4.731-36.031,18.015,2.972,19.714,4.913c.789.91-.667,8.8-2.73,14.073S114.778,126.608,114.474,130.308Z" transform="translate(-38.713 -35.983)" fill="#5f40d5"/>
      <path id="Path_35708" data-name="Path 35708" d="M120.545,165.147c-.364-6.854-1.516-20.624-.97-27.478.3-3.7,4.792-14.315,7.158-20.381-.607-1.88.182-5.884-1.4-6.976s-6.308,4.792-6.854,6.49.364,3.033.485,4.307a12.434,12.434,0,0,1-1.577,6.976c-1.759,3.154-3.943,5.641-4.974,9.22-1.941,6.915-.364,14.133,1.213,20.987A73.57,73.57,0,0,1,116,171.334c.121,2.548.485,8.128.121,10.615l4-.364A135.4,135.4,0,0,0,120.545,165.147Z" transform="translate(-43.874 -43.344)" fill="#32187c"/>
      <path id="Path_35709" data-name="Path 35709" d="M153.758,174.607l-5.7.607c-2.972-9.887-10.979-26.75-12.131-37.062-1.82-16.074-4-33.3-4.125-37.547V99.574c3.943-4.792,10.615-6.733,13.587-7.1,1.152-.121,2,.061,2.426.728a44.47,44.47,0,0,1,2.912,5.641c4.792,11.4.728,18.258.849,33.058,0,.849,0,1.759.061,2.608.182,6.126-1.516,13.648.243,20.078C155.214,167.086,153.758,174.607,153.758,174.607Z" transform="translate(-51.853 -36.366)" fill="#5f40d4"/>
      <path id="Path_35710" data-name="Path 35710" d="M57.092,44.78c.243,7.825,2.366,13.891,7.218,13.527a21.048,21.048,0,0,0,10.918-3.7L76.017,54l1.213-1.031,1.4-1.456.182-.243a11.663,11.663,0,0,0,3.154-5.459,15.407,15.407,0,0,0,.425-3.457S87,26.947,83.3,28.342s-8.674,6.915-12.435,12.435H70.8l-.607.849-.364.485c-1.88,2.73-3.275,4.853-3.821,5.1s-1.82-3.336-2.73-6.915h0l-.3-1.274c-.667-2.548-1.274-4.671-1.941-4.853s-2.972-2.608-3.154-1.274a70.243,70.243,0,0,0-.789,11.889Z" transform="translate(-22.457 -11.112)" fill="#ff505c"/>
      <path id="Path_35711" data-name="Path 35711" d="M66.075,48.705l.97,5.459a5.156,5.156,0,0,0,.607,1.88,1.82,1.82,0,0,0,1.7.971c.91-.121,1.456-1.152,2.366-1.334a2.062,2.062,0,0,1,1.82.667,10.917,10.917,0,0,1,1.152,1.638c1.152,1.759,2.305,3.761,4.064,4.428l.789-.607,1.213-1.031,1.4-1.456A9.159,9.159,0,0,0,81.3,57.5c-1.759-3.033-3.579-6.187-6.248-8.492l-.728-.485-.607.849-.364.485c-1.88,2.73-3.275,4.853-3.821,5.1s-1.82-3.336-2.73-6.915h0a.485.485,0,0,0-.243-.243.425.425,0,0,0-.485.3A1.213,1.213,0,0,0,66.075,48.705Z" transform="translate(-25.98 -18.798)" fill="#fc3c4c"/>
      <path id="Path_35712" data-name="Path 35712" d="M85.633,53.57c1.213-1.152,2.972-2.426,4.549-3.7l1.7-1.456a9.219,9.219,0,0,0,1.7-1.88,2.669,2.669,0,0,0,.364-.849,41.123,41.123,0,0,0,.364-4.731c.182-6.066-.485-14.376-3.276-13.587C86.24,28.64,81.448,34.827,77.384,39.74,77.08,44.775,79.507,50.355,85.633,53.57Z" transform="translate(-30.435 -10.743)" fill="#b9dae1"/>
      <path id="Path_35713" data-name="Path 35713" d="M160.618,156.284a158.126,158.126,0,0,1-1.334-19.653c0-.849-.061-1.759-.061-2.608-.061-14.8,3.943-22.019-.849-33.422,0-2.3-5.4-3.4-5.4-2a27.655,27.655,0,0,0,.425,4.974c.485,2.851,1.092,5.7.667,8.674-.667,4.61-2.123,8.917-2.426,13.587-.546,8.613,1.4,16.5,4.307,24.445a65.555,65.555,0,0,1,3.882,15.164,110.417,110.417,0,0,1,.425,11.464l1.274-.121S162.983,172.055,160.618,156.284Z" transform="translate(-59.623 -38.545)" fill="#32187c"/>
      <path id="Path_35714" data-name="Path 35714" d="M92.589,32.4a18.1,18.1,0,0,0,.728,9.584c.485,1.456,2.487,5.58,3.639,9.1a19.23,19.23,0,0,0,2.487-2.608l-3.336-7.4Z" transform="translate(-36.299 -12.744)" fill="#1f0d52"/>
      <path id="Path_35715" data-name="Path 35715" d="M136.215,68.831c-.061.971-3.4,2.912-8.492,4.125a38.456,38.456,0,0,1-10.008.971c-7.946-.3-18.5-4.731-19.228-5.641-.789-3.882,3.761-12.5,2.123-17.712a62.784,62.784,0,0,0-3.154-6.854c-2.912-5.944-6.308-12.374-5.277-16.2,4.549-4.064,16.2-7.4,23.717-6.187a7.339,7.339,0,0,1,3.154,1.092l.546.485a17.4,17.4,0,0,1,2.123,2.851,90.566,90.566,0,0,1,7.461,16.256C131.848,49.6,136.336,67.5,136.215,68.831Z" transform="translate(-36.191 -8.292)" fill="#d3e7ec"/>
      <path id="Path_35716" data-name="Path 35716" d="M103.755,18.48V21.7s-.849,1.88,0,1.941c2.851.364,4.489-3.275,4.489-3.275V16.6Z" transform="translate(-40.671 -6.528)" fill="#ff505c"/>
      <path id="Path_35717" data-name="Path 35717" d="M108.9,19.041V17.1s-1.516,2.244-3.7,2.366A4.246,4.246,0,0,0,108.9,19.041Z" transform="translate(-41.388 -6.725)" fill="#fc3c4c"/>
      <path id="Path_35718" data-name="Path 35718" d="M101.048,4.8a22.382,22.382,0,0,0-1.759,5.944c-.3,2.184,3.457,5.641,6.733,2.487s2.366-7.885,2.366-7.885Z" transform="translate(-39.056 -1.885)" fill="#ff6b79"/>
      <path id="Path_35719" data-name="Path 35719" d="M113.84,9.793l.121-.3a2.305,2.305,0,0,0-.485-2.3.607.607,0,0,0-.789-.061h0c-.91-.061-.91,1.092-1.092,1.7s-.849,2.3-.546,3.4a1.334,1.334,0,0,0,1.7.971c.91-.243.789-1.092,1.092-1.82a1.577,1.577,0,0,0,.182-1.152A2,2,0,0,0,113.84,9.793Z" transform="translate(-43.659 -2.753)" fill="#32187c"/>
      <path id="Path_35720" data-name="Path 35720" d="M99.1.665c-1.031.91-.607,2.912.182,3.579,2.305,2.062,4,.607,4.974,1.092s3.094,2.366,4.064.182C110.023,1.818,101.349-1.458,99.1.665Z" transform="translate(-38.75 0.005)" fill="#32187c"/>
      <path id="Path_35721" data-name="Path 35721" d="M158.2,230.3s2.244,3.215.667,5.7c0,0-11.646.546-15.164,0,0,0-.121-4.307,2.912-4.671s6.915-.546,6.915-.546A3.46,3.46,0,0,0,158.2,230.3Z" transform="translate(-56.535 -90.603)" fill="#1f0d52"/>
      <g id="Group_12142" data-name="Group 12142" transform="translate(0 17.109)">
        <rect id="Rectangle_13517" data-name="Rectangle 13517" width="6.492" height="32.44" transform="translate(35.703 10.122) rotate(11.535)" fill="#1f0d52"/>
        <path id="Path_35722" data-name="Path 35722" d="M62.228,28.322h0A5.7,5.7,0,0,0,55.5,32.689l-1.274,6.066a5.7,5.7,0,0,0,4.367,6.733h0a5.7,5.7,0,0,0,6.733-4.367L66.6,35.055a5.7,5.7,0,0,0-4.367-6.733Z" transform="translate(-21.285 -28.201)" fill="#5f40d4"/>
        <g id="Group_12141" data-name="Group 12141" transform="translate(0 32.391)">
          <path id="Path_35723" data-name="Path 35723" d="M31.24,123.564l-15.1-3.154a1.092,1.092,0,0,1-.849-1.274h0a1.092,1.092,0,0,1,1.274-.849l15.1,3.154a1.092,1.092,0,0,1,.849,1.274h0A1.092,1.092,0,0,1,31.24,123.564Z" transform="translate(-6.007 -96.026)" fill="#ab91ff"/>
          <path id="Path_35724" data-name="Path 35724" d="M51.136,127.71l15.1,3.154a1.092,1.092,0,0,0,1.274-.849h0a1.092,1.092,0,0,0-.849-1.274l-15.1-3.154a1.092,1.092,0,0,0-1.274.849h0A1.092,1.092,0,0,0,51.136,127.71Z" transform="translate(-19.777 -98.898)" fill="#ab91ff"/>
          <path id="Path_35725" data-name="Path 35725" d="M2.759,197.626l-1.213,1.638-.546-2L2.213,191.5l1.759.364Z" transform="translate(-0.393 -124.837)" fill="#331b6c"/>
          <path id="Path_35726" data-name="Path 35726" d="M56.3,208.863l.485,1.941,1.274-1.577,1.213-5.762-1.759-.364Z" transform="translate(-22.15 -129.401)" fill="#331b6c"/>
          <path id="Path_35727" data-name="Path 35727" d="M0,148.141l4.185,1.153,2.669-11.586L29.116,91.366l-.607-8.249L25.779,81.6.485,135.949Z" transform="translate(0 -81.6)" fill="#5f40d4"/>
          <path id="Path_35728" data-name="Path 35728" d="M61.307,158.472,57,157.805l2.184-11.646-1.82-51.316,3.882-7.34,3.094-.3,1.4,59.869Z" transform="translate(-22.425 -83.803)" fill="#5f40d4"/>
        </g>
        <path id="Path_35729" data-name="Path 35729" d="M60.458,75.579a11.949,11.949,0,1,0-5.143,7.57A11.95,11.95,0,0,0,60.458,75.579Z" transform="translate(-14.48 -41.187)" fill="#331b6c"/>
        <path id="Path_35730" data-name="Path 35730" d="M59.236,77.339a8.067,8.067,0,1,0-3.475,5.155A8.067,8.067,0,0,0,59.236,77.339Z" transform="translate(-17.018 -43.736)" fill="#ffe092"/>
        <path id="Path_35731" data-name="Path 35731" d="M58.738,77.979a6.672,6.672,0,1,0-7.885,5.156A6.672,6.672,0,0,0,58.738,77.979Z" transform="translate(-17.915 -44.618)" fill="#ffd341"/>
      </g>
      <g id="Group_12143" data-name="Group 12143" transform="translate(38.715 43.814)">
        <path id="Path_35732" data-name="Path 35732" d="M71.089,74.933c-1.88-.728-4.853-.971-6.49.607s-.3,1.274.607.91,3.215-.607.485.243c-.546.182-1.577.789-1.456,1.213s2.123,0,2.972-.243-1.152,1.092-1.4,1.456c-.971,1.7,2.669.061,2.851.243s-2,1.274-.849,1.759,2.972-1.274,3.821-1.4,1.213.3,1.638-.364S71.877,75.236,71.089,74.933Z" transform="translate(-63.825 -73.068)" fill="#ff505c"/>
        <path id="Path_35733" data-name="Path 35733" d="M74.878,74.637a8.741,8.741,0,0,0-2.426-2.3c-.728-.243-1.031-.061-.728.485a2.426,2.426,0,0,0,.849.849c.3.182.546.485.789.607a4.549,4.549,0,0,0,1.516.364Z" transform="translate(-66.887 -72.226)" fill="#ff505c"/>
      </g>
      <path id="Path_35734" data-name="Path 35734" d="M145.737,45.052A94.732,94.732,0,0,0,138.276,28.8a4,4,0,0,0-3.579,1.82,2.548,2.548,0,0,0,.849,3.7.667.667,0,0,0,.061.3c3.639,6.308,4.853,13.648,5.884,20.745s1.88,13.769,2.79,20.624c5.1-1.213,8.431-3.154,8.492-4.125S148.466,52.634,145.737,45.052Z" transform="translate(-52.81 -11.324)" fill="#b8d3d8"/>
      <path id="Path_35735" data-name="Path 35735" d="M75.3,64.286l1.031,4.307,2,.789c3.639,1.334,11.646,3.761,17.53,2.426s22.2-19.41,18.076-22.747c-2.123-1.759-12.8-3.094-12.313-.3S93.679,62.1,91.8,63.133C90.828,63.619,75.3,64.286,75.3,64.286Z" transform="translate(-29.625 -18.547)" fill="#ff505c"/>
      <path id="Path_35736" data-name="Path 35736" d="M116.1,41.463c.121-1.274.91-9.463,4.731-13.769,1.759-1.941,7.158-5.277,9.766-3.215,4.185,3.276,2.73,13.405,1.274,20.684C126.654,46.558,120.953,44.981,116.1,41.463Z" transform="translate(-45.677 -9.372)" fill="#b9dae1"/>
      <g id="Group_12144" data-name="Group 12144" transform="translate(62.658 6.553)">
        <path id="Path_35737" data-name="Path 35737" d="M103.3,13.044a2.184,2.184,0,1,0,2.123-2.244,2.184,2.184,0,0,0-2.123,2.244Z" transform="translate(-103.298 -10.799)" fill="url(#radial-gradient)"/>
      </g>
    </g>
  </g>
</svg>
