<svg id="Social" xmlns="http://www.w3.org/2000/svg" width="147.086" height="170.882" viewBox="0 0 147.086 170.882">
  <path id="Polygon_9" data-name="Polygon 9" d="M128.161,0l42.72,73.543-42.72,73.543H42.72L0,73.543,42.72,0Z" transform="translate(147.086 0) rotate(90)" fill="#f0eeff"/>
  <g id="아트웍_6" data-name="아트웍 6" transform="translate(75.209 84.99)">
    <g id="아트웍_6-2" data-name="아트웍 6" transform="translate(-49.566 -76.122)">
      <path id="Path_9347" data-name="Path 9347" d="M139.089,217.745s12.8-33.164,17.52-46.475c1.024-2.844-11.206-3.982-13.027-1.251-3.47,5.176-6.542,41.867-8.59,46.645C134.766,217.233,139.089,218.371,139.089,217.745Z" transform="translate(-58.199 -72.551)" fill="#ff505c"/>
      <path id="Path_9348" data-name="Path 9348" d="M108.5,123.054c6.087,11.434,25.314,30.206,25.314,30.206l11.889-7.395s-11.832-32.026-17.52-36.634C124.487,106.216,105.829,117.991,108.5,123.054Z" transform="translate(-46.669 -46.804)" fill="#5d33c5"/>
      <path id="Path_9349" data-name="Path 9349" d="M121.567,148.159c2.1,1.251,7.167,2.56,8.362,4.721a43.13,43.13,0,0,0,7.907,9.955c1.65,1.65-.4,5.973-.4,5.973S121.966,153.677,114.4,142.3C116.5,143.665,119.292,146.794,121.567,148.159Z" transform="translate(-49.324 -61.272)" fill="#765eed"/>
      <path id="Path_9350" data-name="Path 9350" d="M135.8,209.836c2.048-12.287,5.347-36.235,8.191-40.331s12.059-1.82,13.425.91c2.218,4.437-9.955,28.556-14.335,41.014A16.5,16.5,0,0,1,135.8,209.836Z" transform="translate(-58.551 -72.037)" fill="#5d33c5"/>
      <path id="Path_9351" data-name="Path 9351" d="M143.821,171.7c-2.844,4.778-6.03,27.987-8.021,40.047l1.365.569V212.2c.8-3.47,3.129-6.2,3.356-9.727.114-1.82-2.332-6.712.853-8.7s1.365-7.167,1.707-10.125c.455-4.039,2.446-3.641,3.072-7.736C146.267,175.284,143.878,171.814,143.821,171.7Z" transform="translate(-58.551 -73.948)" fill="#765eed"/>
      <path id="Path_9352" data-name="Path 9352" d="M108.507,128.826c-4.778,10.012-20.82,26.565-20.82,26.565L75.4,148.679s8.248-28.044,13.368-32.083C92.067,114.036,110.611,124.389,108.507,128.826Z" transform="translate(-32.509 -50.016)" fill="#5d33c5"/>
      <path id="Path_9353" data-name="Path 9353" d="M88.768,116.507c2.958-2.332,17.919,3.7,15.416,8.078-1.195,2.1-8.646,1.251-13.14,2.844-2.674.967,7.167,6.826-2.787,13.027-1.308.853,1.081,5.063.569,7.111-.853,3.584-7.509-3.7-9.5-.853-.626.91-3.925,1.82-3.925,1.82S83.648,120.545,88.768,116.507Z" transform="translate(-32.509 -49.927)" fill="#765eed"/>
      <path id="Path_9354" data-name="Path 9354" d="M13.2,176.97s27.02.91,41.127.341c3.015-.114,3.242-11.32,0-12-6.087-1.251-36.406,7.622-41.639,7.452C12.067,172.76,12.636,177.254,13.2,176.97Z" transform="translate(-5.355 -71.14)" fill="#ff505c"/>
      <path id="Path_9355" data-name="Path 9355" d="M25.888,169.045c-.228,5.063,1.991,7.281,2.389,7.736,12.913.4,35.041,1.82,38.056-1.707,3.925-4.551-.057-12.685-3.3-13.368a8.249,8.249,0,0,0-1.82-.114H60.189C52.794,162.162,36.3,166.542,25.888,169.045Z" transform="translate(-11.155 -69.586)" fill="#5d33c5"/>
      <path id="Path_9356" data-name="Path 9356" d="M26.969,174.807a12.063,12.063,0,0,1-1.081-5.8c9.784-2.332,24.858-5.973,32.595-7.224,14.9-2.389,7.452,10.808,5.632,11.149-7.338,1.308-8.476-4.266-18.487-1.251-9.1,2.73-11.889-3.072-15.416,2.218C29.358,175.206,28.221,174.694,26.969,174.807Z" transform="translate(-11.155 -69.546)" fill="#765eed"/>
      <path id="Path_9357" data-name="Path 9357" d="M25.9,153.186a6.825,6.825,0,0,0,.057.967c2.5-.683,9.67-2.446,13.311-1.763,2.275.455,4.266-.455,6.371-1.365a16.678,16.678,0,0,1,8.533-1.82c5.632.569,6.485-1.365,7-4.721l.171-1.251c.114-.8.228-1.65.4-2.617,1.024-5.8,7.793-18.146,7.85-18.26l-.853-.455c-.284.512-6.883,12.628-7.964,18.6-.171.967-.284,1.877-.4,2.674a13.978,13.978,0,0,1-.228,1.479c-.455,3.072-1.251,4.209-5.916,3.7s-6.6.8-9.045,1.877-3.811,1.707-5.8,1.308C35.684,150.684,28.63,152.447,25.9,153.186Z" transform="translate(-11.167 -52.476)" fill="#fff"/>
      <path id="Path_9358" data-name="Path 9358" d="M26.5,157.128a6.877,6.877,0,0,0,.284,1.024c2.5-.683,10.865-2.844,14.506-2.162,2.275.455,4.266-.455,6.371-1.365a16.678,16.678,0,0,1,8.533-1.82c5.632.569,6.485-1.365,7-4.721l.171-1.251c.114-.8.228-1.65.4-2.617,1.024-5.8,7.793-18.146,7.85-18.26l-.853-.455c-.284.512-6.883,12.628-7.964,18.6-.171.967-.284,1.877-.4,2.674a13.982,13.982,0,0,1-.228,1.479c-.455,3.072-1.195,4.209-5.916,3.7s-6.6.8-9.045,1.877-3.811,1.707-5.8,1.308C37.649,154.284,29.174,156.388,26.5,157.128Z" transform="translate(-11.426 -54.028)" fill="#fff"/>
      <path id="Path_9359" data-name="Path 9359" d="M94.571,33.769s1.308-1.991-.171-2.787-2.332-3.868-4.892-1.195-4.437.91-4.039-.739a2.389,2.389,0,0,0,.74,3.356,2.332,2.332,0,0,1-1.934-1.024s-1.877,2.56,2.219,3.982S93.66,35.021,94.571,33.769Z" transform="translate(-36.15 -12.299)" fill="#483680"/>
      <path id="Path_9360" data-name="Path 9360" d="M101.381,37.046c-.569.057-1.081-.171-1.081-.569s.4-.683.967-.8,1.081.171,1.081.569S101.95,36.989,101.381,37.046Z" transform="translate(-43.245 -15.291)" fill="#fb8585"/>
      <path id="Path_9361" data-name="Path 9361" d="M87.228,42.868c1.251-2.446.4-6.03-3.186-6.542a4.22,4.22,0,0,0-3.186.626,3.156,3.156,0,0,0-5.29.512c-2.5,3.641-5.973.171-7.566,5.688s-6.712.967-5.575,8.362S55.6,58.227,55.6,58.227,59.07,68.3,76.135,62.55c5.518-1.877,10.41-6.826,11.377-12.685C87.8,47.931,86.318,44.632,87.228,42.868Z" transform="translate(-23.972 -15.311)" fill="#483680"/>
      <path id="Path_9362" data-name="Path 9362" d="M58,98.6a89.773,89.773,0,0,0-6.712,16.383c-.114.569.512,1.763,1.934,1.024s15.814-17.464,9.784-19.91C61.359,95.468,60.335,94.615,58,98.6Z" transform="translate(-22.108 -41.118)" fill="#ff505c"/>
      <path id="Path_9363" data-name="Path 9363" d="M51.743,130.631c.683.967-.967,1.934-1.081,2.787s-.569-.8,0-1.763a19.566,19.566,0,0,0-2.218,2.73c-.569.967-1.138-.853-1.991-1.251s-.739-.228-.683-.626a4.153,4.153,0,0,1,1.479-2.446c1.877-1.707,1.422-1.82,2.048-2.9s2.5.967,2.5.967S51.061,129.664,51.743,130.631Z" transform="translate(-19.717 -54.609)" fill="#ff505c"/>
      <path id="Path_9364" data-name="Path 9364" d="M85.226,74.675C84.2,76.04,71.687,89.238,68.331,90.375a3.292,3.292,0,0,1-4.039-4.608C65.6,83.834,77.774,69.954,80.22,68.873,84.088,67.11,87.9,71.091,85.226,74.675Z" transform="translate(-27.545 -29.427)" fill="#ff505c"/>
      <path id="Path_9365" data-name="Path 9365" d="M116.819,59.274c4.039-2.446,8.874-8.931,11.263-12.685s-2.162-8.191-4.949-4.665c-4.608,5.916-12.116,12.913-12.515,14.961C109.879,60.468,113.065,61.549,116.819,59.274Z" transform="translate(-47.647 -17.438)" fill="#ff505c"/>
      <path id="Path_9366" data-name="Path 9366" d="M134.052,31.588c.683-7.793-7.338-19.739-8.7-21.1s-2.958.171-2.674.8c1.65,3.641,4.608,18.374,4.778,19.739C127.965,33.977,134.052,31.588,134.052,31.588Z" transform="translate(-52.878 -4.202)" fill="#ff505c"/>
      <path id="Path_9367" data-name="Path 9367" d="M102.247,55.46c.683-3.527-1.422-8.191-1.422-8.191l3.015-.569s-.341,5.12,1.479,8.191c0,0,3.925-.626,6.03.853,0,0-.8,7.452-5.973,8.419s-8.476-5.8-8.476-5.8C98.379,56.257,102.247,55.46,102.247,55.46Z" transform="translate(-41.779 -20.053)" fill="#ff505c"/>
      <path id="Path_9368" data-name="Path 9368" d="M88.4,101.193a49.421,49.421,0,0,0,20.877,2.1c7.395-1.024,15.529-8.476,15.529-8.476-4.266-10.694-15.3-13.2-14.961-18.6s1.877-7.395-1.195-9.727-3.7-6.542-3.7-6.542c-1.82-.626-2.275.455-2.275.455s1.138.171.683.4-.853,1.536-1.365,3.754a2.617,2.617,0,0,1-.228.626,1.081,1.081,0,0,1-.74.683h-.171a1.536,1.536,0,0,1-1.138-.8h0v-.057A5.632,5.632,0,0,0,95.909,62.4h-.853s-4.153,2.1-5.29,2.844c0,0,6.03,1.195,4.323,3.925s.057,4.608,2.275,9.557S88.741,89.7,88.4,101.193Z" transform="translate(-38.114 -25.683)" fill="#ffd341"/>
      <path id="Path_9369" data-name="Path 9369" d="M110.106,83.136c2.389,1.251,4.949,2.5,6.6,4.665a35.215,35.215,0,0,1,4.437,9.045,64.425,64.425,0,0,0,2.674,7.509,2.718,2.718,0,0,1,.512,1.308,30.831,30.831,0,0,0,7.736-5.518c-4.153-10.751-15.416-13.2-15.017-18.6s1.877-7.224-.74-9.443c-.171.114.512,8.476-5.632,6.712-1.479,2.332-5.12,1.422-5.575,1.479C106.75,81.2,108.456,82.282,110.106,83.136Z" transform="translate(-45.314 -31.004)" fill="#ffa700"/>
      <path id="Path_9370" data-name="Path 9370" d="M102.08,42.369a11.206,11.206,0,0,1,2.844-.569c2.389.171,1.877,4.266,1.991,5.518s-1.365,2.162-1.934,2.275-2.332-.455-2.617-1.365S99.918,43.393,102.08,42.369Z" transform="translate(-43.602 -17.94)" fill="#ff505c"/>
      <path id="Path_9371" data-name="Path 9371" d="M103.262,41.084a2.787,2.787,0,0,1-1.82,3.015c-2.275.967-.967,2.5-.967,2.5s-2.844-2.674-.284-5.4C101.5,39.775,103.262,41.084,103.262,41.084Z" transform="translate(-42.737 -17.395)" fill="#483680"/>
      <path id="Path_9372" data-name="Path 9372" d="M106.283,41.574a1.877,1.877,0,0,0,1.195,2.048,1.365,1.365,0,0,1,.683,1.991,2.4,2.4,0,0,0,.228-3.641C106.795,40.379,106.283,41.574,106.283,41.574Z" transform="translate(-45.815 -17.658)" fill="#483680"/>
      <path id="Path_9373" data-name="Path 9373" d="M105.1,52.212a4.266,4.266,0,0,0,2.332-.512s-.171,1.365-.853,1.536S105.1,52.212,105.1,52.212Z" transform="translate(-45.314 -22.209)" fill="#fff"/>
      <path id="Path_9374" data-name="Path 9374" d="M118.484,5.968c-1.195-.057-.967-1.934-1.593-2.5s.967,0,1.422,1.024a19.568,19.568,0,0,0-.853-3.413c-.4-1.024,1.365-.4,2.218-.853s.626-.455.91-.171a4.153,4.153,0,0,1,1.081,2.617c.228,2.5,1.081,3.356,1.081,3.356l-2.275,1.422S119.678,6.025,118.484,5.968Z" transform="translate(-50.336 0.144)" fill="#ff505c"/>
      <g id="Group_3546" data-name="Group 3546" transform="translate(73.779 139.449)">
        <g id="Group_3545" data-name="Group 3545">
          <path id="Path_9375" data-name="Path 9375" d="M131.95,249.494c-.4.4-1.081.853-1.65,3.129l10.467,5.063a9.615,9.615,0,0,0,1.934.057l.228-.967-.228-.114a1.593,1.593,0,0,0-.512-1.536,29.377,29.377,0,0,1-2.674-1.877h0c-1.991-1.82-2.275-3.527-1.536-5.12a7.453,7.453,0,0,1,1.024-1.65c-1.308-1.138-2.1.228-3.129-.171A4.664,4.664,0,0,1,133.884,245S132.86,248.641,131.95,249.494Z" transform="translate(-129.959 -245)" fill="#32187c"/>
          <path id="Path_9376" data-name="Path 9376" d="M135.445,261.079v-.341l-2.73-1.365-.228.284-2.787-1.365c.114-.284.228-1.081.4-1.65a.114.114,0,0,1,.171-.057l1.479.853,2.048,1.707a20.252,20.252,0,0,0,5.347,2.332,7.737,7.737,0,0,0,3.242.284h.114l-.228.967a5.8,5.8,0,0,1-2.162-.114,17.919,17.919,0,0,1-4.665-1.536Z" transform="translate(-129.7 -249.987)" fill="#00cbb1"/>
          <path id="Path_9377" data-name="Path 9377" d="M140.721,250.871s-1.991,4.1.455,5.29a3.129,3.129,0,0,0,2.674-.171l-.114-.171h0c-1.991-1.82-2.275-3.527-1.536-5.12Z" transform="translate(-134.122 -247.458)" fill="#1f0d52"/>
        </g>
        <path id="Path_9378" data-name="Path 9378" d="M135.46,246.571s.171.455,1.65,1.251a.569.569,0,0,1,.228.74l-.455.91a.569.569,0,0,1-.8.284,4.21,4.21,0,0,1-1.365-1.024C134.208,247.993,135.744,245.775,135.46,246.571Z" transform="translate(-131.819 -245.604)" fill="#00cbb1"/>
      </g>
      <g id="Group_3548" data-name="Group 3548" transform="translate(0 101.052)">
        <g id="Group_3547" data-name="Group 3547">
          <path id="Path_9379" data-name="Path 9379" d="M4.727,178.41c-.512-.114-1.308-.455-3.527.341l1.479,11.491a9.613,9.613,0,0,0,1.024,1.65l.91-.341v-.227a1.593,1.593,0,0,0,1.024-1.251c.057-.626-.057-2.446.057-3.3h0c.455-2.674,1.707-3.811,3.413-4.1a7.509,7.509,0,0,1,1.991-.057c.228-1.706-1.308-1.65-1.593-2.73a4.664,4.664,0,0,1,0-2.389S5.978,178.695,4.727,178.41Z" transform="translate(-0.517 -177.5)" fill="#32187c"/>
          <path id="Path_9380" data-name="Path 9380" d="M.8,185.814l.284-.114-.341-3.015H.4L0,179.557l1.593-.569a.114.114,0,0,1,.171.114l.114,1.65-.284,2.674a20.251,20.251,0,0,0,1.024,5.745,7.736,7.736,0,0,0,1.479,2.9v.114l-.91.341A5.8,5.8,0,0,1,2.1,190.649,17.919,17.919,0,0,1,.8,185.814Z" transform="translate(0 -178.135)" fill="#00cbb1"/>
          <path id="Path_9381" data-name="Path 9381" d="M10.339,184.7s-4.494.626-4.153,3.242A3.129,3.129,0,0,0,7.779,190.1v-.228h0c.455-2.674,1.707-3.811,3.413-4.1Z" transform="translate(-2.659 -180.604)" fill="#1f0d52"/>
        </g>
        <path id="Path_9382" data-name="Path 9382" d="M12.458,177.99s-.284.4-.171,2.048a.569.569,0,0,1-.512.626l-1.024.114a.569.569,0,0,1-.683-.512,4.153,4.153,0,0,1,.114-1.707C10.524,177.706,13.254,177.763,12.458,177.99Z" transform="translate(-4.324 -177.649)" fill="#00cbb1"/>
      </g>
    </g>
  </g>
</svg>
